<svg width="33" height="33" viewBox="0 0 33 33" fill="none" xmlns="http://www.w3.org/2000/svg">
<path d="M18.3319 27.1855C18.3635 23.963 17.5465 21.3424 16.5072 21.3322C15.4679 21.3221 14.5999 23.9263 14.5684 27.1487C14.5369 30.3713 15.3539 32.9919 16.3931 33.002C17.4324 33.0122 18.3005 30.4081 18.3319 27.1855Z" fill="#AC85BE"/>
<path d="M12.3045 26.4536C14.0734 23.7597 14.803 21.1135 13.9343 20.543C13.0655 19.9726 10.9272 21.6939 9.15842 24.3878C7.38954 27.0817 6.65989 29.7279 7.52864 30.2984C8.39746 30.8688 10.5356 29.1475 12.3045 26.4536Z" fill="#AC85BE"/>
<path d="M7.62241 22.5886C10.567 21.2789 12.6115 19.4473 12.1891 18.4977C11.7667 17.548 9.03732 17.84 6.09276 19.1498C3.14823 20.4595 1.10365 22.2911 1.52605 23.2408C1.94844 24.1904 4.67788 23.8984 7.62241 22.5886Z" fill="#AC85BE"/>
<path d="M11.8357 15.8347C11.9938 14.8074 9.53989 13.5773 6.35476 13.087C3.16955 12.5967 0.459281 13.0321 0.301176 14.0593C0.143071 15.0865 2.597 16.3166 5.78218 16.8069C8.96732 17.2972 11.6776 16.8618 11.8357 15.8347Z" fill="#AC85BE"/>
<path d="M12.9793 13.3875C13.6676 12.6088 12.268 10.2474 9.8532 8.11323C7.43844 5.97909 4.92294 4.88033 4.23466 5.6591C3.54639 6.43788 4.946 8.79927 7.36078 10.9334C9.77554 13.0676 12.2911 14.1663 12.9793 13.3875Z" fill="#AC85BE"/>
<path d="M15.2568 11.9574C16.2568 11.6744 16.3562 8.93115 15.4787 5.83025C14.6013 2.72932 13.0792 0.444931 12.0791 0.72792C11.0791 1.01091 10.9797 3.75411 11.8572 6.85506C12.7346 9.95593 14.2567 12.2404 15.2568 11.9574Z" fill="#AC85BE"/>
<path d="M21.4409 6.95154C22.3794 3.86851 22.3342 1.12388 21.3399 0.821226C20.3456 0.518569 18.7788 2.7725 17.8403 5.85552C16.9019 8.93852 16.9471 11.6832 17.9414 11.9858C18.9357 12.2885 20.5025 10.0346 21.4409 6.95154Z" fill="#AC85BE"/>
<path d="M25.8598 11.1173C28.3158 9.03078 29.7614 6.6972 29.0884 5.90515C28.4155 5.11308 25.879 6.16248 23.423 8.24896C20.9669 10.3355 19.5215 12.6691 20.1944 13.4612C20.8673 14.2532 23.4038 13.2039 25.8598 11.1173Z" fill="#AC85BE"/>
<path d="M27.3209 17.0125C30.5152 16.5851 32.9929 15.4036 32.855 14.3734C32.7173 13.3433 30.0161 12.8547 26.8218 13.282C23.6276 13.7093 21.1499 14.8908 21.2877 15.921C21.4256 16.9511 24.1267 17.4398 27.3209 17.0125Z" fill="#AC85BE"/>
<path d="M31.4415 23.5352C31.8826 22.5941 29.8745 20.7226 26.9564 19.355C24.0383 17.9874 21.3151 17.6417 20.8741 18.5828C20.433 19.524 22.4411 21.3955 25.3592 22.7631C28.2773 24.1306 31.0005 24.4763 31.4415 23.5352Z" fill="#AC85BE"/>
<path d="M25.3033 30.4791C26.1832 29.9259 25.5058 27.2657 23.7905 24.5375C22.0751 21.8093 19.9712 20.0462 19.0914 20.5993C18.2115 21.1525 18.8888 23.8127 20.6042 26.5409C22.3196 29.2691 24.4235 31.0323 25.3033 30.4791Z" fill="#AC85BE"/>
</svg>
