<svg width="294" height="193" viewBox="0 0 294 193" fill="none" xmlns="http://www.w3.org/2000/svg">
<g clip-path="url(#clip0_190_1171)">
<circle cx="145.5" cy="156.5" r="115.5" fill="url(#paint0_linear_190_1171)"/>
<path d="M261.363 57.6784C262.135 56.6989 262.836 55.6663 263.462 54.588L248.656 52.1588L264.669 52.2765C266.206 48.9344 267.044 45.3137 267.133 41.6362C267.222 37.9588 266.559 34.3019 265.185 30.8895L243.703 42.0338L263.514 27.4711C261.658 24.264 259.161 21.4735 256.179 19.2733C253.198 17.0732 249.795 15.5106 246.183 14.6829C242.571 13.8552 238.827 13.7801 235.185 14.4623C231.543 15.1445 228.08 16.5693 225.012 18.648C221.944 20.7268 219.338 23.4149 217.354 26.545C215.371 29.6751 214.053 33.18 213.483 36.8416C212.913 40.5031 213.103 44.2427 214.042 47.8276C214.98 51.4124 216.647 54.7656 218.937 57.6784C217.738 59.2038 216.706 60.8536 215.859 62.5994L235.078 72.5842L214.587 65.7073C213.147 69.9605 212.791 74.5056 213.55 78.9312C214.309 83.3569 216.16 87.5234 218.935 91.0537C216.066 94.7013 214.186 99.0268 213.477 103.613C212.767 108.199 213.252 112.89 214.884 117.234C216.515 121.578 219.24 125.428 222.793 128.412C226.347 131.397 230.61 133.414 235.17 134.271C234.813 135.278 234.633 136.338 234.637 137.406C234.621 138.987 235.026 140.543 235.811 141.914C235.041 143.292 234.637 144.844 234.637 146.422C234.637 148 235.041 149.552 235.811 150.93C235.041 152.307 234.637 153.859 234.637 155.438C234.637 157.016 235.041 158.568 235.811 159.945C235.041 161.323 234.637 162.875 234.637 164.453C234.637 166.031 235.041 167.583 235.811 168.961C235.026 170.333 234.621 171.889 234.637 173.469C234.637 177.543 237.159 180.844 240.272 180.844C243.385 180.844 245.906 177.543 245.906 173.469C245.921 171.888 245.515 170.332 244.729 168.961C245.501 167.584 245.906 166.032 245.906 164.453C245.906 162.875 245.501 161.323 244.729 159.945C245.501 158.568 245.906 157.016 245.906 155.438C245.906 153.859 245.501 152.307 244.729 150.93C245.501 149.553 245.906 148.001 245.906 146.422C245.906 144.843 245.501 143.291 244.729 141.914C245.515 140.543 245.921 138.987 245.906 137.406C245.91 136.323 245.725 135.248 245.358 134.228C249.892 133.336 254.121 131.295 257.64 128.3C261.159 125.306 263.851 121.458 265.457 117.125C267.063 112.792 267.53 108.12 266.813 103.555C266.096 98.9902 264.22 94.6857 261.363 91.0537C265.106 86.2964 267.141 80.4191 267.141 74.366C267.141 68.313 265.106 62.4357 261.363 57.6784Z" fill="#F2F2F2"/>
<path d="M172.111 86.4029C171.597 85.7472 171.128 85.0569 170.709 84.3368L180.608 82.7115L169.902 82.7892C168.875 80.5546 168.314 78.1337 168.255 75.6749C168.195 73.2161 168.638 70.771 169.557 68.4894L183.924 75.9423L170.676 66.2029C171.915 64.0541 173.584 62.1838 175.578 60.7087C177.573 59.2336 179.85 58.1854 182.267 57.6296C184.684 57.0737 187.19 57.0221 189.629 57.478C192.067 57.9338 194.385 58.8874 196.438 60.2791C198.491 61.6709 200.236 63.4709 201.562 65.5669C202.889 67.6628 203.769 70.0097 204.148 72.4611C204.527 74.9125 204.397 77.4156 203.766 79.8144C203.134 82.2132 202.015 84.456 200.478 86.4029C201.281 87.4223 201.971 88.5256 202.536 89.6936L189.684 96.3702L203.393 91.7697C204.356 94.6139 204.595 97.6536 204.087 100.613C203.579 103.573 202.34 106.359 200.483 108.719C202.402 111.158 203.66 114.05 204.135 117.117C204.61 120.183 204.286 123.321 203.195 126.226C202.104 129.131 200.283 131.706 197.906 133.701C195.53 135.697 192.679 137.046 189.629 137.619C189.867 138.292 189.987 139.001 189.985 139.715C189.994 140.769 189.723 141.806 189.198 142.72C189.714 143.641 189.985 144.679 189.985 145.734C189.985 146.79 189.714 147.828 189.198 148.748C189.714 149.67 189.985 150.708 189.985 151.764C189.985 152.819 189.714 153.857 189.198 154.779C189.714 155.7 189.985 156.737 189.985 157.793C189.985 158.848 189.714 159.886 189.198 160.807C189.722 161.721 189.994 162.758 189.985 163.812C189.985 166.534 188.299 168.743 186.228 168.743C184.157 168.743 182.472 166.534 182.472 163.812C182.462 162.758 182.734 161.721 183.258 160.807C182.742 159.886 182.472 158.848 182.472 157.793C182.472 156.737 182.742 155.7 183.258 154.779C182.742 153.857 182.472 152.819 182.472 151.764C182.472 150.708 182.742 149.67 183.258 148.748C182.742 147.828 182.472 146.79 182.472 145.734C182.472 144.679 182.742 143.641 183.258 142.72C182.734 141.806 182.462 140.769 182.472 139.715C182.469 138.99 182.594 138.271 182.84 137.589C179.808 136.993 176.98 135.628 174.626 133.626C172.273 131.624 170.473 129.051 169.398 126.153C168.324 123.256 168.011 120.132 168.49 117.079C168.969 114.027 170.224 111.148 172.134 108.719C169.632 105.538 168.272 101.608 168.272 97.561C168.272 93.5139 169.632 89.5842 172.134 86.4029H172.111Z" fill="#F2F2F2"/>
<path d="M151.784 193.08C221.057 193.08 277.213 186.016 277.213 177.303C277.213 168.589 221.057 161.526 151.784 161.526C82.5108 161.526 26.354 168.589 26.354 177.303C26.354 186.016 82.5108 193.08 151.784 193.08Z" fill="#F2F2F2"/>
<path d="M190.303 141.816C190.303 142.317 190.288 142.818 190.26 143.299C190.26 143.372 190.26 143.442 190.26 143.514C190.127 145.63 189.742 147.722 189.116 149.748C189.098 149.81 189.076 149.878 189.056 149.94C188.414 151.956 187.552 153.895 186.486 155.723L186.379 155.903C185.234 157.829 183.891 159.63 182.372 161.278L182.216 161.443C180.509 163.275 178.619 164.926 176.574 166.371C176.504 166.424 176.431 166.477 176.361 166.524C174.219 168.023 171.941 169.318 169.557 170.391C169.229 170.539 168.898 170.684 168.555 170.827L168.255 170.952C164.607 172.453 160.784 173.491 156.878 174.04L156.399 174.105C154.206 174.394 151.995 174.539 149.783 174.538C133.384 174.538 119.26 166.669 112.886 155.347C112.457 154.591 112.066 153.82 111.712 153.033L111.567 152.71C110.214 149.632 109.444 146.33 109.295 142.971C109.295 142.888 109.295 142.808 109.295 142.72C109.295 142.42 109.283 142.117 109.283 141.814C109.282 139.472 109.588 137.141 110.194 134.879C110.212 134.809 110.229 134.742 110.249 134.674C110.886 132.37 111.812 130.155 113.004 128.083C113.037 128.025 113.069 127.965 113.104 127.907C114.279 125.9 115.67 124.028 117.252 122.323C117.293 122.271 117.337 122.222 117.384 122.175L117.404 122.155C117.602 121.944 117.802 121.732 118.008 121.524L118.316 121.213C118.519 121.01 118.727 120.812 118.934 120.612H118.947C119.448 120.141 119.958 119.685 120.477 119.242C121.198 118.631 121.952 118.043 122.731 117.477L122.899 117.352C124.967 115.877 127.164 114.593 129.465 113.517C129.533 113.485 129.603 113.45 129.671 113.422C132.263 112.225 134.962 111.274 137.732 110.582C137.82 110.557 137.905 110.537 137.982 110.517C141.414 109.68 144.925 109.214 148.456 109.127C148.573 109.127 148.691 109.127 148.811 109.127C149.132 109.127 149.455 109.115 149.778 109.115C166.028 109.115 180.045 116.846 186.501 127.997C186.559 128.098 186.614 128.198 186.672 128.295L186.922 128.734C187.06 128.984 187.19 129.235 187.32 129.5C187.38 129.62 187.438 129.738 187.496 129.858C187.531 129.928 187.568 129.998 187.601 130.071C188.546 132.036 189.254 134.105 189.712 136.237C189.732 136.319 189.747 136.399 189.765 136.487C190.122 138.241 190.302 140.026 190.303 141.816Z" fill="#9657B3"/>
<g opacity="0.2">
<path d="M186.679 128.273C184.828 127.572 182.991 126.842 181.17 126.084C169.803 121.379 158.865 115.7 148.476 109.112H148.831C160.742 116.63 173.367 122.952 186.521 127.985C186.569 128.083 186.624 128.175 186.679 128.273Z" fill="#F2F2F2"/>
</g>
<g opacity="0.2">
<path d="M189.762 136.457C185.254 134.954 180.794 133.285 176.381 131.448C164.898 126.698 153.851 120.955 143.366 114.284C141.39 113.026 139.511 111.787 137.732 110.565L137.982 110.502C139.72 111.689 141.557 112.898 143.492 114.128C157.955 123.319 173.473 130.735 189.709 136.217C189.729 136.297 189.744 136.377 189.762 136.457Z" fill="#F2F2F2"/>
</g>
<g opacity="0.2">
<path d="M190.26 143.299C190.26 143.372 190.26 143.444 190.26 143.514C183.968 141.596 177.753 139.369 171.616 136.833C160.13 132.079 149.082 126.331 138.596 119.655C135.278 117.544 132.232 115.476 129.473 113.502L129.678 113.405C132.415 115.361 135.438 117.412 138.719 119.5C154.76 129.698 172.095 137.702 190.26 143.299Z" fill="#F2F2F2"/>
</g>
<g opacity="0.2">
<path d="M189.103 149.745C189.086 149.813 189.063 149.878 189.043 149.943C181.495 147.789 174.077 145.205 166.825 142.205C155.341 137.452 144.294 131.705 133.81 125.03C129.688 122.408 125.989 119.848 122.731 117.462L122.898 117.339C126.154 119.716 129.83 122.263 133.933 124.875C151.042 135.755 169.62 144.13 189.103 149.745Z" fill="#F2F2F2"/>
</g>
<g opacity="0.2">
<path d="M186.474 155.723L186.366 155.903C178.094 153.639 169.971 150.859 162.046 147.579C150.562 142.825 139.515 137.078 129.029 130.404C124.612 127.592 120.675 124.849 117.259 122.318C117.299 122.27 117.344 122.22 117.392 122.172C120.812 124.702 124.747 127.431 129.162 130.249C142.277 138.601 161.921 148.991 186.474 155.723Z" fill="#F2F2F2"/>
</g>
<g opacity="0.2">
<path d="M182.362 161.277L182.206 161.443C173.72 159.15 165.39 156.315 157.268 152.953C145.784 148.199 134.736 142.453 124.251 135.778C120.064 133.109 116.307 130.507 113.004 128.082C113.037 128.025 113.069 127.967 113.104 127.91C116.408 130.336 120.174 132.946 124.374 135.621C137.617 144.053 157.499 154.553 182.362 161.277Z" fill="#F2F2F2"/>
</g>
<g opacity="0.2">
<path d="M176.564 166.372C176.494 166.424 176.421 166.477 176.351 166.524C168.237 164.283 160.268 161.545 152.49 158.328C141.005 153.575 129.957 147.828 119.473 141.153C116.092 138.999 112.989 136.896 110.187 134.88C110.204 134.812 110.222 134.744 110.242 134.677C113.064 136.698 116.187 138.826 119.598 140.998C132.658 149.312 152.177 159.637 176.564 166.372Z" fill="#F2F2F2"/>
</g>
<g opacity="0.2">
<path d="M168.553 170.826L168.252 170.952C161.284 168.899 154.429 166.479 147.717 163.702C141.205 161.009 134.792 157.972 128.536 154.623C123.828 152.099 119.216 149.4 114.7 146.527C112.811 145.325 111.013 144.139 109.305 142.971C109.305 142.888 109.305 142.808 109.305 142.72C111.055 143.914 112.899 145.13 114.837 146.367C118.952 148.989 123.71 151.809 129.059 154.656C141.645 161.365 154.876 166.782 168.553 170.826Z" fill="#F2F2F2"/>
</g>
<g opacity="0.2">
<path d="M156.878 174.039L156.399 174.104C151.863 172.587 147.372 170.91 142.926 169.073C133.305 165.091 123.99 160.408 115.055 155.062C113.94 154.394 112.83 153.718 111.724 153.033L111.579 152.71C112.796 153.468 114.063 154.24 115.381 155.026C128.493 162.83 142.405 169.204 156.878 174.039Z" fill="#F2F2F2"/>
</g>
<path opacity="0.1" d="M169.547 170.391C169.219 170.539 168.888 170.684 168.545 170.827L168.245 170.952C164.6 172.453 160.781 173.49 156.877 174.04L156.399 174.105C154.205 174.394 151.995 174.539 149.783 174.538C133.384 174.538 119.26 166.669 112.886 155.347C113.602 155.237 114.321 155.144 115.042 155.062L115.368 155.027C117.306 154.821 119.26 154.706 121.208 154.624C123.646 154.496 126.088 154.496 128.526 154.624C128.696 154.624 128.866 154.644 129.027 154.659C130.688 154.776 132.338 155.017 133.963 155.38C138.909 156.502 143.442 158.938 147.934 161.29C154.874 164.911 161.969 168.442 169.547 170.391Z" fill="black"/>
<path opacity="0.1" d="M186.511 127.975C180.055 116.823 166.038 109.092 149.788 109.092C149.465 109.092 149.142 109.092 148.821 109.092H148.465C144.935 109.178 141.423 109.644 137.992 110.482L137.742 110.545C134.972 111.239 132.274 112.19 129.68 113.385L129.475 113.482C127.174 114.558 124.976 115.843 122.909 117.319L122.741 117.442C120.817 118.829 119.033 120.401 117.414 122.135C117.204 124.271 116.843 126.362 115.912 128.288C115.255 129.64 114.577 130.943 115.506 132.295C116.129 133.204 117.479 134.356 118.629 134.401C121.787 134.529 123.542 130.307 125.03 128.203C127.309 124.982 130.687 122.746 133.988 120.585C135.398 119.661 136.823 118.729 138.413 118.176C139.754 117.742 141.149 117.496 142.558 117.447C146.397 117.231 150.321 117.815 153.827 119.405C157.834 121.221 161.39 124.351 165.763 124.784C167.744 124.98 169.77 124.597 171.711 125.05C175.159 125.859 177.551 129.112 180.907 130.249C183.078 130.985 185.414 130.75 187.623 130.029C187.338 129.427 187.031 128.836 186.704 128.253C186.624 128.175 186.569 128.083 186.511 127.975Z" fill="black"/>
<path d="M88.2937 140.524C87.1067 141.777 85.7744 142.876 84.5497 144.091C80.0144 148.598 77.1068 154.456 73.0298 159.367C71.9304 160.692 70.7358 161.964 69.9169 163.477C69.098 164.989 68.6873 166.83 69.2733 168.448C69.7742 169.835 70.9287 170.874 72.0506 171.834C72.7426 172.469 73.5027 173.026 74.317 173.494C76.2003 174.496 78.4291 174.551 80.5628 174.583C81.7399 174.601 83.1749 174.468 83.6782 173.404C81.7709 172.495 80.0142 171.299 78.4692 169.858C77.5852 169.031 76.7512 168.085 76.3931 166.93C75.7821 164.962 76.6861 162.818 77.9658 161.203C79.2455 159.587 80.8959 158.293 82.1456 156.655C83.3952 155.017 84.2016 153.136 85.7067 151.799C86.7485 150.875 88.0433 150.296 89.2128 149.527C90.9208 148.403 92.3307 146.89 93.7206 145.393L101.108 137.447C101.287 137.294 101.409 137.087 101.457 136.858C101.487 136.56 101.266 136.3 101.056 136.084C99.448 134.434 96.4178 131.536 94.209 133.71C92.0803 135.804 90.3548 138.351 88.2937 140.524Z" fill="#A0616A"/>
<path opacity="0.1" d="M88.2937 140.524C87.1067 141.777 85.7744 142.876 84.5497 144.091C80.0144 148.598 77.1068 154.456 73.0298 159.367C71.9304 160.692 70.7358 161.964 69.9169 163.477C69.098 164.989 68.6873 166.83 69.2733 168.448C69.7742 169.835 70.9287 170.874 72.0506 171.834C72.7426 172.469 73.5027 173.026 74.317 173.494C76.2003 174.496 78.4291 174.551 80.5628 174.583C81.7399 174.601 83.1749 174.468 83.6782 173.404C81.7709 172.495 80.0142 171.299 78.4692 169.858C77.5852 169.031 76.7512 168.085 76.3931 166.93C75.7821 164.962 76.6861 162.818 77.9658 161.203C79.2455 159.587 80.8959 158.293 82.1456 156.655C83.3952 155.017 84.2016 153.136 85.7067 151.799C86.7485 150.875 88.0433 150.296 89.2128 149.527C90.9208 148.403 92.3307 146.89 93.7206 145.393L101.108 137.447C101.287 137.294 101.409 137.087 101.457 136.858C101.487 136.56 101.266 136.3 101.056 136.084C99.448 134.434 96.4178 131.536 94.209 133.71C92.0803 135.804 90.3548 138.351 88.2937 140.524Z" fill="black"/>
<path d="M98.8516 126.079C100.342 125.764 101.947 126.557 103.387 126.064C104.203 125.784 104.827 125.133 105.415 124.501L107.82 121.939C108.498 121.216 109.189 120.477 109.608 119.575C109.978 118.779 110.109 117.9 110.289 117.039C110.73 114.835 111.483 112.576 113.139 111.058C115.202 109.16 118.383 108.804 121.032 109.711C123.682 110.617 125.838 112.641 127.424 114.955C126.006 116.658 124.418 118.231 123.003 119.934C122.551 120.53 122.019 121.061 121.423 121.514C120.763 121.916 120.054 122.23 119.312 122.448C116.765 123.349 114.053 124.654 113.004 127.146C112.638 128.013 112.503 128.957 112.302 129.876C111.917 131.614 111.213 133.334 109.941 134.579C108.669 135.824 106.748 136.505 105.052 135.966C103.177 135.37 102.027 133.532 101.06 131.819C100.033 130.031 99.2876 128.095 98.8516 126.079Z" fill="#A0616A"/>
<path opacity="0.1" d="M98.8516 126.079C100.342 125.764 101.947 126.557 103.387 126.064C104.203 125.784 104.827 125.133 105.415 124.501L107.82 121.939C108.498 121.216 109.189 120.477 109.608 119.575C109.978 118.779 110.109 117.9 110.289 117.039C110.73 114.835 111.483 112.576 113.139 111.058C115.202 109.16 118.383 108.804 121.032 109.711C123.682 110.617 125.838 112.641 127.424 114.955C126.006 116.658 124.418 118.231 123.003 119.934C122.551 120.53 122.019 121.061 121.423 121.514C120.763 121.916 120.054 122.23 119.312 122.448C116.765 123.349 114.053 124.654 113.004 127.146C112.638 128.013 112.503 128.957 112.302 129.876C111.917 131.614 111.213 133.334 109.941 134.579C108.669 135.824 106.748 136.505 105.052 135.966C103.177 135.37 102.027 133.532 101.06 131.819C100.033 130.031 99.2876 128.095 98.8516 126.079Z" fill="black"/>
<path d="M164.092 116.132C173.504 119.5 182.86 123.49 190.638 129.781C194.199 132.663 197.372 135.989 200.758 139.077C202.531 140.694 204.362 142.245 206.193 143.797L219.188 154.816C220.795 156.181 222.411 157.549 224.196 158.691C228.396 161.39 233.405 162.763 237.517 165.665C237.509 167.164 237.755 168.653 238.243 170.07C238.429 170.592 238.782 171.038 239.246 171.341C239.71 171.643 240.26 171.786 240.813 171.746C247.289 171.373 253.855 174.515 260.379 173.724C260.567 173.704 260.748 173.64 260.907 173.538C261.067 173.436 261.201 173.298 261.298 173.136C261.736 172.369 260.987 171.653 260.331 171.195L251.474 164.994C250.013 163.972 248.553 162.95 247.066 161.971C241.687 158.435 235.942 155.432 230.955 151.373C229.891 150.506 228.867 149.595 227.84 148.681C222.411 143.857 216.979 139.029 211.832 133.905C204.352 126.455 197.277 118.143 189.862 110.627C189.157 109.878 188.397 109.182 187.588 108.546C186.797 107.983 185.968 107.475 185.106 107.026L175.692 101.855C174.267 101.071 172.687 100.262 171.097 100.57C170.703 100.473 170.291 100.475 169.898 100.575C169.504 100.676 169.142 100.872 168.843 101.146C168.237 101.704 167.841 102.443 167.441 103.167C166.917 104.043 166.505 104.981 166.213 105.959C165.878 107.289 165.988 108.714 165.6 110.021C165.349 110.885 164.884 111.674 164.568 112.526C164.154 113.68 163.992 114.91 164.092 116.132Z" fill="#A0616A"/>
<path opacity="0.1" d="M164.092 116.132C173.504 119.5 182.86 123.49 190.638 129.781C194.199 132.663 197.372 135.989 200.758 139.077C202.531 140.694 204.362 142.245 206.193 143.797L219.188 154.816C220.795 156.181 222.411 157.549 224.196 158.691C228.396 161.39 233.405 162.763 237.517 165.665C237.509 167.164 237.755 168.653 238.243 170.07C238.429 170.592 238.782 171.038 239.246 171.341C239.71 171.643 240.26 171.786 240.813 171.746C247.289 171.373 253.855 174.515 260.379 173.724C260.567 173.704 260.748 173.64 260.907 173.538C261.067 173.436 261.201 173.298 261.298 173.136C261.736 172.369 260.987 171.653 260.331 171.195L251.474 164.994C250.013 163.972 248.553 162.95 247.066 161.971C241.687 158.435 235.942 155.432 230.955 151.373C229.891 150.506 228.867 149.595 227.84 148.681C222.411 143.857 216.979 139.029 211.832 133.905C204.352 126.455 197.277 118.143 189.862 110.627C189.157 109.878 188.397 109.182 187.588 108.546C186.797 107.983 185.968 107.475 185.106 107.026L175.692 101.855C174.267 101.071 172.687 100.262 171.097 100.57C170.703 100.473 170.291 100.475 169.898 100.575C169.504 100.676 169.142 100.872 168.843 101.146C168.237 101.704 167.841 102.443 167.441 103.167C166.917 104.043 166.505 104.981 166.213 105.959C165.878 107.289 165.988 108.714 165.6 110.021C165.349 110.885 164.884 111.674 164.568 112.526C164.154 113.68 163.992 114.91 164.092 116.132Z" fill="black"/>
<path d="M100.237 145.555C106.089 145.555 110.833 140.811 110.833 134.959C110.833 129.108 106.089 124.364 100.237 124.364C94.385 124.364 89.6411 129.108 89.6411 134.959C89.6411 140.811 94.385 145.555 100.237 145.555Z" fill="#A0616A"/>
<path d="M164.718 96.6982C166.198 96.7232 167.879 96.8384 168.81 97.9879C169.742 99.1374 169.532 100.713 169.296 102.13C168.56 106.61 167.794 111.171 165.745 115.223C165.602 115.588 165.347 115.899 165.016 116.112C164.428 116.415 163.729 116.059 163.166 115.711C159.061 113.162 154.956 110.417 150.278 109.2C149.996 109.164 149.737 109.026 149.55 108.812C149.485 108.677 149.449 108.531 149.441 108.383C149.434 108.234 149.456 108.085 149.507 107.945C149.973 105.869 150.561 103.818 150.927 101.719C151.147 100.467 150.739 97.462 151.848 96.6857C153.023 95.8592 156.406 96.5579 157.796 96.5805L164.718 96.6982Z" fill="#A0616A"/>
<path d="M169.702 117.379C179.113 120.747 188.469 124.737 196.235 131.025C199.797 133.91 202.97 137.236 206.355 140.324C208.128 141.942 209.959 143.492 211.79 145.042L224.785 156.061C226.393 157.423 228.008 158.793 229.793 159.933C234.011 162.642 239.019 164.01 243.117 166.9C243.109 168.399 243.354 169.89 243.843 171.307C244.029 171.829 244.382 172.275 244.846 172.577C245.31 172.88 245.86 173.022 246.412 172.983C252.888 172.607 259.455 175.753 265.979 174.961C266.167 174.94 266.348 174.876 266.507 174.773C266.667 174.671 266.8 174.533 266.898 174.37C267.336 173.619 266.587 172.888 265.931 172.429L257.073 166.231C255.613 165.209 254.153 164.188 252.666 163.208C247.296 159.672 241.551 156.67 236.565 152.613C235.501 151.746 234.477 150.832 233.45 149.92C228.02 145.097 222.588 140.269 217.44 135.145C209.962 127.694 202.887 119.383 195.472 111.854C194.763 111.115 194 110.428 193.19 109.801C192.398 109.239 191.569 108.732 190.708 108.283L181.294 103.112C179.87 102.328 178.289 101.519 176.699 101.827C176.305 101.729 175.893 101.73 175.5 101.83C175.107 101.93 174.744 102.126 174.445 102.401C173.839 102.959 173.443 103.7 173.043 104.424C172.52 105.3 172.108 106.237 171.816 107.214C171.48 108.544 171.59 109.969 171.202 111.278C170.952 112.142 170.486 112.931 170.17 113.783C169.76 114.935 169.601 116.161 169.702 117.379Z" fill="#A0616A"/>
<path d="M172.825 118.155L173.123 113.82C173.208 112.608 173.293 111.381 173.667 110.227C174.09 108.917 174.861 107.752 175.645 106.62C176.063 105.96 176.569 105.36 177.148 104.835C178.002 104.116 179.106 103.725 179.902 102.947C180.13 102.724 180.343 102.396 180.208 102.108C180.145 102 180.06 101.908 179.957 101.837C177.994 100.227 175.64 99.18 173.316 98.1508L168.923 96.2074C167.075 98.7117 165.194 101.294 164.243 104.264C164.099 104.791 163.919 105.309 163.704 105.812C163.141 106.986 162.072 107.843 161.393 108.954C160.754 110.001 160.489 111.226 160.236 112.425C160.086 113.129 159.94 113.88 160.193 114.554C160.474 115.305 161.195 115.791 161.851 116.23C164.759 118.135 167.829 120.101 171.297 120.372C171.934 120.419 172.78 120.737 172.983 120.121C173.126 119.708 172.793 118.661 172.825 118.155Z" fill="#3F3D56"/>
<path d="M86.0268 130.336C84.9299 131.806 85.6662 133.948 86.8032 135.388C87.9402 136.828 89.4603 138.035 90.0964 139.755C91.6215 143.87 87.3667 148.02 87.5119 152.397C87.6421 156.299 91.0906 159.126 94.0232 161.718C100.254 167.228 105.578 174.906 104.877 183.2C107.711 182.37 110.16 180.563 111.789 178.099C112.74 180.186 113.142 182.482 112.956 184.768C119.487 180.298 123.206 172.034 122.222 164.183C121.754 160.466 120.321 156.842 120.544 153.106C120.664 151.08 121.268 149.119 121.704 147.136C122.259 144.578 122.536 141.969 122.53 139.352C122.53 136.367 121.977 133.051 119.622 131.215C117.619 129.655 114.864 129.603 112.325 129.615C109.643 129.633 106.961 129.645 104.283 129.813C101.551 129.983 98.7338 130.885 96.0442 130.953C93.049 131.028 88.8292 126.58 86.0268 130.336Z" fill="#3F3D56"/>
<path d="M126.074 110.735C124.303 111.32 122.708 112.342 121.438 113.708C120.639 114.574 119.978 115.564 119.149 116.403C118.163 117.404 116.958 118.156 115.804 118.957C113.597 120.485 111.531 122.2 109.468 123.913L99.3 132.353C97.7097 133.673 96.1194 134.995 94.6194 136.417C92.7686 138.17 91.0607 140.084 89.0848 141.699C87.9278 142.646 86.6831 143.49 85.6213 144.544C84.6195 145.546 83.8081 146.7 82.9867 147.845C79.6404 152.49 76.0456 156.951 72.2181 161.208C70.5928 163.018 68.9123 164.801 66.9364 166.216C62.8393 169.169 59.729 173.589 56.1277 177.133C55.8222 177.433 55.4866 177.862 55.6744 178.25C55.7864 178.436 55.9658 178.571 56.1753 178.628C58.8099 179.61 61.0788 175.335 63.8235 175.941C65.0757 176.216 65.8445 177.401 66.7411 178.305C67.6376 179.209 69.1753 179.875 70.1119 179.011C69.7911 176.496 70.1178 173.941 71.0611 171.588C72.5962 167.779 75.6415 164.776 78.8921 162.262C82.1428 159.748 85.6814 157.604 88.7342 154.852C93.8555 150.236 97.597 143.94 103.673 140.682C106.052 139.405 108.681 138.659 111.053 137.351C115.643 134.812 118.854 130.339 121.363 125.739C121.659 125.108 122.058 124.531 122.545 124.033C123.069 123.621 123.651 123.289 124.273 123.049C127.5 121.56 130.395 119.439 132.788 116.811C132.037 116.272 131.333 115.696 130.584 115.156C129.975 114.752 129.417 114.275 128.924 113.736C128.423 113.145 128.097 112.436 127.672 111.79C127.246 111.144 126.8 110.968 126.074 110.735Z" fill="#A0616A"/>
<path d="M153.434 111.509C152.773 110.978 152.75 110.006 152.783 109.147C152.891 106.512 152.998 103.879 153.103 101.246C153.176 99.3901 153.354 97.3115 154.754 96.0944C150.705 95.2814 146.623 94.6578 142.507 94.2237C140.875 94.0509 139.219 93.9082 137.591 94.1461C135.63 94.4316 133.792 95.253 131.984 96.0669C129.981 96.9685 127.965 97.8775 126.169 99.1422C125.478 99.6764 124.757 100.171 124.01 100.625C122.648 101.376 121.083 101.627 119.615 102.127C116.224 103.281 113.389 105.664 111.669 108.806C109.949 111.948 109.469 115.621 110.324 119.099C110.825 117.805 111.176 116.45 111.762 115.19C112.348 113.93 113.212 112.741 114.441 112.097C115.723 111.431 117.271 111.436 118.666 111.819C120.061 112.202 121.316 112.941 122.568 113.687C125.358 115.378 128.208 117.351 129.532 120.329C132.287 118.28 135.105 116.322 137.864 114.263C139.061 113.374 140.276 112.478 141.663 111.939C143.487 111.231 145.488 111.188 147.443 111.151C149.399 111.113 151.52 111.003 153.434 111.509Z" fill="#FF6584"/>
<path d="M110.314 118.859L109.981 123.48L111.183 122.488L110.582 118.401L110.314 118.859Z" fill="#FF6584"/>
<path d="M65.1765 59.5238L61.2898 61.988L63.6489 57.7106C62.9803 57.177 62.1527 56.8817 61.2973 56.8717H61.2347C60.9646 56.8756 60.6948 56.8555 60.4283 56.8116L59.111 57.648L59.677 56.6213C58.7431 56.2949 57.9366 55.6812 57.373 54.8682L55.0139 56.3708L56.504 53.6636C55.1241 52.0083 53.2659 50.994 51.2223 50.994C48.7706 50.994 46.5868 52.4515 45.1769 54.723C44.7593 55.4046 44.1684 55.9632 43.4645 56.342C42.7606 56.7208 41.9688 56.9062 41.1699 56.8792H41.0372C38.33 56.8792 36.1362 59.947 36.1362 63.7336C36.1362 67.5201 38.33 70.5879 41.0372 70.5879C41.6328 70.5852 42.2188 70.4382 42.7452 70.1597C43.6663 69.7119 44.6737 69.4697 45.6976 69.4498C46.7216 69.43 47.7377 69.6329 48.6754 70.0445C49.4688 70.3994 50.3282 70.5829 51.1973 70.5829C52.0664 70.5829 52.9258 70.3994 53.7192 70.0445C54.6502 69.6409 55.6572 69.4422 56.6718 69.4621C57.6864 69.482 58.6848 69.7199 59.5993 70.1597C60.1203 70.4324 60.6992 70.5758 61.2873 70.5779C63.9945 70.5779 66.1883 67.5076 66.1883 63.7236C66.2098 62.2608 65.8618 60.8163 65.1765 59.5238Z" fill="#F2F2F2"/>
<path opacity="0.03" d="M57.851 69.5538C56.4369 69.2846 54.9746 69.4432 53.6512 70.0096C52.8568 70.3618 51.9971 70.5427 51.128 70.5405C50.259 70.5384 49.4002 70.3532 48.6075 69.9971C47.6695 69.5858 46.6534 69.3833 45.6294 69.4037C44.6055 69.424 43.5982 69.6666 42.6772 70.1148C42.1505 70.3922 41.5646 70.5383 40.9693 70.5405C38.5651 70.5405 36.5642 68.1188 36.1484 64.9233C36.6288 64.5732 37.037 64.1336 37.3505 63.6286C38.758 61.3571 40.9442 59.8971 43.396 59.8971C45.8477 59.8971 48.004 61.3371 49.4064 63.586C49.828 64.2665 50.4187 64.8263 51.1209 65.2107C51.8231 65.5952 52.6129 65.7912 53.4133 65.7798H53.4759C55.3867 65.7798 57.0446 67.3149 57.851 69.5538Z" fill="black"/>
<path d="M134.539 74.0215L132.6 75.2411L133.777 73.1024C133.444 72.8358 133.032 72.6886 132.605 72.6842H132.585C132.451 72.6856 132.317 72.6756 132.185 72.6542L131.526 73.0699L131.809 72.569C131.343 72.4067 130.94 72.1007 130.659 71.695L129.482 72.4463L130.234 71.0965C129.919 70.689 129.517 70.3573 129.057 70.1259C128.597 69.8944 128.091 69.7691 127.577 69.7592C126.354 69.7592 125.265 70.4854 124.571 71.6199C124.363 71.9604 124.067 72.2394 123.715 72.4282C123.363 72.6169 122.967 72.7088 122.568 72.6942H122.503C121.153 72.6942 120.059 74.2244 120.059 76.1127C120.059 78.0009 121.153 79.5311 122.503 79.5311C122.8 79.5298 123.092 79.4568 123.354 79.3182C123.813 79.0937 124.316 78.9722 124.827 78.9622C125.338 78.9523 125.845 79.0541 126.312 79.2606C126.706 79.4367 127.132 79.5289 127.564 79.5311C127.995 79.5314 128.422 79.4409 128.816 79.2656C129.281 79.0642 129.783 78.9651 130.289 78.975C130.795 78.985 131.293 79.1037 131.749 79.3232C132.009 79.4591 132.299 79.5304 132.593 79.5311C133.943 79.5311 135.037 78.0009 135.037 76.1127C135.049 75.3848 134.878 74.6657 134.539 74.0215Z" fill="#F2F2F2"/>
<path opacity="0.03" d="M130.885 79.0251C130.18 78.8911 129.451 78.9704 128.791 79.253C128.396 79.4266 127.97 79.517 127.539 79.5185C127.103 79.5189 126.672 79.4267 126.274 79.248C125.806 79.0432 125.3 78.9425 124.789 78.9529C124.278 78.9633 123.776 79.0845 123.317 79.3081C123.054 79.447 122.762 79.52 122.465 79.521C121.266 79.521 120.269 78.3114 120.061 76.7186C120.3 76.5437 120.503 76.3243 120.66 76.0725C121.363 74.938 122.453 74.2118 123.665 74.2118C124.877 74.2118 125.964 74.9305 126.67 76.05C126.881 76.3902 127.176 76.67 127.527 76.8622C127.878 77.0544 128.273 77.1525 128.673 77.1469H128.703C129.655 77.1419 130.484 77.9082 130.885 79.0251Z" fill="black"/>
<path d="M143.855 35.5076L146.968 37.4835L145.077 34.045C145.613 33.6185 146.276 33.3824 146.96 33.3739H147.01C147.227 33.3758 147.443 33.3599 147.657 33.3263L148.713 33.9949L148.253 33.1685C149 32.908 149.646 32.418 150.098 31.7686L151.989 32.9657L150.795 30.7969C151.899 29.4696 153.389 28.6582 155.027 28.6582C156.993 28.6582 158.741 29.8252 159.87 31.6459C160.204 32.1907 160.677 32.6373 161.239 32.9404C161.802 33.2435 162.435 33.3922 163.073 33.3714H163.178C165.347 33.3714 167.105 35.8281 167.105 38.8634C167.105 41.8986 165.352 44.3529 163.178 44.3529C162.702 44.3513 162.233 44.2344 161.811 44.0123C161.072 43.6521 160.264 43.4573 159.442 43.4413C158.62 43.4253 157.805 43.5885 157.053 43.9196C156.414 44.2043 155.722 44.3519 155.022 44.3529C154.332 44.3525 153.649 44.2074 153.018 43.9271C152.272 43.6041 151.466 43.4452 150.653 43.4612C149.84 43.4772 149.04 43.6677 148.308 44.0198C147.889 44.2369 147.425 44.3511 146.953 44.3529C144.784 44.3529 143.026 41.8961 143.026 38.8634C143.017 37.693 143.302 36.539 143.855 35.5076Z" fill="#F2F2F2"/>
<path opacity="0.03" d="M149.715 43.5439C150.848 43.328 152.02 43.4554 153.081 43.9096C153.716 44.1935 154.404 44.3403 155.1 44.3403C155.796 44.3403 156.485 44.1935 157.12 43.9096C157.873 43.5798 158.688 43.4172 159.509 43.4332C160.331 43.4492 161.139 43.6434 161.878 44.0022C162.299 44.2263 162.769 44.344 163.246 44.3453C165.172 44.3453 166.774 42.4045 167.11 39.8375C166.724 39.5569 166.397 39.2039 166.146 38.7982C165.016 36.9801 163.266 35.8105 161.302 35.8105C159.339 35.8105 157.608 36.965 156.479 38.7657C156.142 39.3086 155.67 39.7553 155.109 40.0624C154.548 40.3695 153.918 40.5267 153.279 40.5187H153.228C151.691 40.5212 150.366 41.7508 149.715 43.5439Z" fill="black"/>
<path d="M92.2001 91.6219C92.0699 91.4241 91.4313 91.6219 90.7752 92.0502C90.66 92.1278 90.5498 92.2079 90.4496 92.2881C89.993 92.0511 89.5006 91.8903 88.9921 91.8123L89.0196 91.7922C89.6818 91.3582 90.2956 90.8545 90.8503 90.2896H89.4404L91.4864 89.5033C91.7369 89.1051 91.817 88.772 91.6792 88.5641C91.3086 88.0082 89.5205 88.5441 87.6723 89.7662C86.8395 90.2972 86.0908 90.9497 85.451 91.7021C83.9484 91.8774 82.894 92.3181 82.894 92.8315C82.894 93.1871 83.3949 93.5077 84.2088 93.7306L84.1612 93.7606C82.3231 94.9802 81.131 96.4227 81.5016 96.9787C81.8272 97.4796 83.2547 97.1089 84.8524 96.1798L83.7931 95.6789L85.4635 95.7942L85.4986 95.7716C85.6764 95.6539 85.8467 95.5337 86.0119 95.4135L84.7598 94.8325L86.5954 94.9577C86.9429 94.67 87.2678 94.3561 87.5671 94.0186C89.2776 93.9284 90.6149 93.5177 90.8478 92.9868C90.99 92.9222 91.1287 92.8503 91.2635 92.7714C91.499 92.6184 91.7173 92.4404 91.9147 92.2405H91.4138L92.1426 91.96C92.2227 91.8148 92.2502 91.6971 92.2001 91.6219Z" fill="#F2F2F2"/>
<path d="M43.5512 167.693C43.5571 168.55 43.4732 169.406 43.3008 170.245C43.2658 170.403 43.2307 170.558 43.1956 170.709C42.2615 174.453 39.627 177.192 36.484 177.368C36.3788 177.368 36.2736 177.368 36.1635 177.368C32.8402 177.368 30.0303 174.5 29.1012 170.551C29.0762 170.446 29.0536 170.34 29.0286 170.235C28.852 169.396 28.7639 168.541 28.7657 167.683C28.7657 162.334 32.0789 157.999 36.1635 157.999C40.248 157.999 43.5512 162.344 43.5512 167.693Z" fill="#3F3D56"/>
<path opacity="0.1" d="M43.5512 167.694C43.5571 168.551 43.4732 169.406 43.3008 170.246C43.2658 170.403 43.2307 170.559 43.1956 170.709C43.0829 170.709 42.9752 170.709 42.8626 170.696C42.0485 170.651 41.2394 170.54 40.4434 170.363C39.7373 170.584 39.0157 170.751 38.2846 170.864C37.7246 170.949 37.1602 171.001 36.5942 171.022C36.4039 171.022 36.2135 171.022 36.0232 171.022C35.3456 171.022 34.6687 170.977 33.9972 170.887C32.9119 170.742 31.846 170.478 30.8192 170.098C30.256 170.285 29.6824 170.439 29.1012 170.559C29.0762 170.453 29.0536 170.348 29.0286 170.243C28.852 169.404 28.7639 168.549 28.7657 167.691C28.7657 162.342 32.0789 158.007 36.1635 158.007C40.248 158.007 43.5512 162.344 43.5512 167.694Z" fill="black"/>
<path d="M59.3333 149.652C59.3344 147.303 58.7827 144.987 57.723 142.891L49.0205 145.598L56.6587 141.105C55.3783 139.254 53.6984 137.714 51.743 136.599C49.7877 135.484 47.6068 134.823 45.3616 134.664C45.003 134.115 44.609 133.589 44.1821 133.091L31.6754 136.98L41.9282 130.965C39.9689 129.46 37.6689 128.462 35.2317 128.058C32.7944 127.654 30.2952 127.857 27.9553 128.649C25.6153 129.442 23.5069 130.799 21.8166 132.601C20.1263 134.403 18.9063 136.593 18.2647 138.979L28.9707 151.3L17.3456 142.906C14.3927 144.987 12.2876 148.062 11.4155 151.567C10.5434 155.073 10.9624 158.776 12.596 161.998C14.2297 165.22 16.9686 167.747 20.312 169.116C23.6554 170.484 27.3798 170.603 30.8039 169.452C33.8973 170.585 37.2764 170.674 40.4256 169.707C42.6226 170.19 44.8998 170.174 47.0899 169.661C49.28 169.148 51.3272 168.15 53.081 166.742C54.8348 165.333 56.2506 163.549 57.2242 161.522C58.1979 159.494 58.7046 157.274 58.7072 155.024C58.7072 154.689 58.6947 154.358 58.6722 154.022C59.107 152.606 59.3298 151.134 59.3333 149.652Z" fill="#57B894"/>
<path opacity="0.1" d="M59.0734 152.442C54.4787 151.572 49.7672 151.512 45.1518 152.264C39.9278 153.131 34.5885 155.031 29.4797 153.642C26.4745 152.825 23.885 150.939 20.9649 149.885C18.1361 148.9 15.0892 148.722 12.1647 149.369C11.0492 152.035 10.725 154.965 11.2309 157.81C11.7368 160.655 13.0513 163.294 15.0173 165.412C16.9834 167.53 19.5177 169.036 22.3174 169.752C25.117 170.467 28.0635 170.361 30.8045 169.446C33.8973 170.581 37.2764 170.673 40.4261 169.707C42.6231 170.19 44.9004 170.174 47.0905 169.661C49.2806 169.148 51.3278 168.15 53.0816 166.741C54.8354 165.333 56.2511 163.549 57.2248 161.521C58.1984 159.494 58.7052 157.273 58.7078 155.024C58.7078 154.688 58.6952 154.358 58.6727 154.022C58.8361 153.504 58.9699 152.976 59.0734 152.442Z" fill="black"/>
<circle cx="19.5" cy="46.5" r="10.5" fill="#F2D5FF"/>
<circle cx="42.5" cy="31.5" r="4.5" fill="#F2D5FF"/>
<circle cx="38.5" cy="48.5" r="2.5" fill="#F2D5FF"/>
<circle cx="10.5" cy="10.5" r="10.5" transform="matrix(-0.711688 0.702496 0.702496 0.711688 276.367 0)" fill="#F2D5FF"/>
<circle cx="4.5" cy="4.5" r="4.5" transform="matrix(-0.711688 0.702496 0.702496 0.711688 249.405 13.9672)" fill="#F2D5FF"/>
<circle cx="2.5" cy="2.5" r="2.5" transform="matrix(-0.711688 0.702496 0.702496 0.711688 264.176 26.084)" fill="#F2D5FF"/>
</g>
<defs>
<linearGradient id="paint0_linear_190_1171" x1="145.5" y1="41" x2="145.5" y2="272" gradientUnits="userSpaceOnUse">
<stop stop-color="#EBC6FB"/>
<stop offset="0.527596" stop-color="#F8EAFF" stop-opacity="0"/>
</linearGradient>
<clipPath id="clip0_190_1171">
<rect width="294" height="193" fill="white"/>
</clipPath>
</defs>
</svg>
