<svg width="320" height="342" viewBox="0 0 320 342" fill="none" xmlns="http://www.w3.org/2000/svg">
<circle cx="158.5" cy="217.5" r="124.5" fill="url(#paint0_linear_139_1338)"/>
<circle cx="10.5" cy="88.5" r="10.5" fill="#F2D5FF"/>
<circle cx="33.5" cy="73.5" r="4.5" fill="#F2D5FF"/>
<circle cx="29.5" cy="90.5" r="2.5" fill="#F2D5FF"/>
<circle cx="10.5" cy="10.5" r="10.5" transform="matrix(-0.711688 0.702496 0.702496 0.711688 287.367 0)" fill="#F2D5FF"/>
<circle cx="4.5" cy="4.5" r="4.5" transform="matrix(-0.711688 0.702496 0.702496 0.711688 260.405 13.9672)" fill="#F2D5FF"/>
<circle cx="2.5" cy="2.5" r="2.5" transform="matrix(-0.711688 0.702496 0.702496 0.711688 275.176 26.0842)" fill="#F2D5FF"/>
<path d="M175.529 178.594L174.045 180.895L193.855 193.717L195.338 191.416L175.529 178.594Z" fill="#2F2E41"/>
<path d="M196.32 193.681C198.778 189.868 199.999 186.278 199.048 185.662C198.096 185.046 195.332 187.638 192.874 191.452C190.416 195.265 189.195 198.855 190.146 199.471C191.098 200.087 193.862 197.495 196.32 193.681Z" fill="#2F2E41"/>
<path d="M176.51 180.859C178.968 177.046 180.189 173.456 179.238 172.84C178.287 172.224 175.523 174.816 173.065 178.629C170.607 182.443 169.385 186.033 170.337 186.649C171.288 187.265 174.052 184.673 176.51 180.859Z" fill="#2F2E41"/>
<path d="M241.075 301C284.664 301 320 298.299 320 294.968C320 291.636 284.664 288.935 241.075 288.935C197.486 288.935 162.15 291.636 162.15 294.968C162.15 298.299 197.486 301 241.075 301Z" fill="#E6E6E6"/>
<path d="M89.9251 272.088C133.514 272.088 168.85 269.387 168.85 266.055C168.85 262.724 133.514 260.023 89.9251 260.023C46.336 260.023 11 262.724 11 266.055C11 269.387 46.336 272.088 89.9251 272.088Z" fill="#E6E6E6"/>
<path d="M305.997 266.042C305.739 275.734 304.119 285.341 301.185 294.579C301.118 294.794 301.048 295.005 300.978 295.219H283.019C283.038 295.027 283.057 294.813 283.076 294.579C284.274 280.784 291.178 196.825 282.923 182.467C283.645 183.632 307.39 222.21 305.997 266.042Z" fill="#E6E6E6"/>
<path d="M304.65 294.579C304.5 294.794 304.343 295.008 304.184 295.219H290.711C290.814 295.037 290.932 294.822 291.069 294.579C293.295 290.554 299.882 278.519 305.997 266.042C312.569 252.635 318.598 238.718 318.09 233.682C318.247 234.818 322.794 269.447 304.65 294.579Z" fill="#E6E6E6"/>
<path d="M178.747 280.409C178.878 285.329 179.701 290.205 181.19 294.894C181.224 295.003 181.259 295.11 181.295 295.219H190.411C190.401 295.122 190.391 295.013 190.381 294.894C189.774 287.892 186.269 245.276 190.459 237.988C190.093 238.579 178.04 258.161 178.747 280.409Z" fill="#E6E6E6"/>
<path d="M179.431 294.894C179.507 295.003 179.587 295.112 179.668 295.219H186.506C186.454 295.127 186.394 295.018 186.324 294.894C185.195 292.851 181.851 286.742 178.747 280.409C175.411 273.604 172.351 266.54 172.609 263.984C172.53 264.56 170.221 282.138 179.431 294.894Z" fill="#E6E6E6"/>
<path d="M190.382 173.892C190.382 173.892 175.153 188.847 181.549 190.679C187.945 192.51 195.255 176.944 195.255 176.944L190.382 173.892Z" fill="#A0616A"/>
<path d="M205.61 224.252L203.783 232.798L217.489 233.409L215.357 224.252H205.61Z" fill="#A0616A"/>
<path d="M248.861 277.054L247.033 285.601L260.739 286.211L258.607 277.054H248.861Z" fill="#A0616A"/>
<path d="M224.799 167.177L226.017 172.06C226.017 172.06 192.209 165.346 194.037 182.438C195.864 199.53 203.783 216.012 203.783 216.012C203.783 216.012 203.174 221.505 204.392 222.421C205.61 223.337 204.392 226.389 204.392 226.389C204.392 226.389 215.662 227.915 215.966 225.168C216.129 223.332 216.027 221.481 215.662 219.674C215.662 219.674 216.271 219.674 215.662 216.622C215.052 213.57 212.592 188.955 210.764 185.598C210.764 185.598 226.931 198.004 235.459 196.478C235.459 196.478 234.241 208.686 239.114 224.863C243.987 241.039 243.987 242.871 243.987 242.871C243.987 242.871 249.774 273.697 248.251 277.36L247.947 278.886H259.216C259.216 278.886 258.303 262.71 259.216 260.573C260.13 258.437 260.13 240.124 254.952 230.967C251.285 224.483 251.968 205.682 253.974 198.25C255.658 192.01 256.084 187.206 255.096 180.818C254.041 173.986 250.888 170.414 247.033 167.177H224.799Z" fill="#2F2E41"/>
<path d="M233.784 121.242C239.84 121.242 244.749 116.323 244.749 110.254C244.749 104.186 239.84 99.2665 233.784 99.2665C227.728 99.2665 222.819 104.186 222.819 110.254C222.819 116.323 227.728 121.242 233.784 121.242Z" fill="#A0616A"/>
<path d="M230.89 118.037C230.89 118.037 234.241 127.804 233.936 129.635C233.632 131.467 243.683 125.973 243.683 125.973C243.683 125.973 239.723 116.206 240.942 113.459L230.89 118.037Z" fill="#A0616A"/>
<path d="M243.074 122.616L232.413 126.889L233.023 130.551C233.023 130.551 232.109 131.772 232.413 132.382C232.718 132.993 228.454 135.435 229.063 136.35C229.672 137.266 225.408 140.928 225.713 141.844C226.017 142.76 215.966 148.254 221.449 158.936C221.449 158.936 224.291 162.639 223.935 167.018C223.922 167.172 223.906 167.327 223.885 167.482C223.276 172.06 247.033 166.872 247.033 166.872V161.683C247.033 161.683 249.165 160.767 248.861 156.8C248.556 152.832 246.729 154.663 248.861 152.527C250.993 150.39 250.993 150.695 250.688 148.864C250.566 148.133 250.542 145.503 250.556 142.608C250.584 136.491 248.596 130.536 244.901 125.668L243.074 122.616Z" fill="#AC85BE"/>
<path d="M237.287 130.551L217.489 151.306L188.554 174.197L194.95 179.386L248.251 143.675C248.251 143.675 252.82 124.142 237.287 130.551Z" fill="#AC85BE"/>
<path d="M206.524 228.831C206.524 228.831 204.392 225.168 202.869 226.389L192.209 234.935C192.209 234.935 173.325 240.429 191.6 244.702C191.6 244.702 201.651 246.228 203.783 244.702C205.915 243.176 209.265 243.481 210.179 244.091C211.093 244.702 222.667 243.786 222.667 241.344C222.667 238.903 216.283 228.231 216.283 228.231C216.283 228.231 212.616 232.493 206.524 228.831Z" fill="#2F2E41"/>
<path d="M249.774 281.633C249.774 281.633 247.642 277.97 246.119 279.191L235.459 287.737C235.459 287.737 216.575 293.231 234.85 297.504C234.85 297.504 244.901 299.03 247.033 297.504C249.165 295.978 252.516 296.283 253.429 296.894C254.343 297.504 265.917 296.589 265.917 294.147C265.917 291.705 259.534 281.034 259.534 281.034C259.534 281.034 255.866 285.295 249.774 281.633Z" fill="#2F2E41"/>
<path d="M220.643 105.897C220.643 105.897 222.497 89.5657 238.354 94.2026C238.354 94.2026 249.571 91.9162 253.533 105.955L257.554 120.675L255.714 119.716L254.9 121.593L251.962 122.399L250.651 119.91L250.098 122.973L229.811 127.084C229.811 127.084 236.672 119.228 236.623 107.723L234.602 109.947L220.643 105.897Z" fill="#2F2E41"/>
<path d="M111.691 92.6173H86.3285V124.311H111.691V92.6173Z" fill="#2F2E41"/>
<path d="M65.3853 240.456L61.9269 253.21L67.6913 257.462L69.2282 256.302L71.9182 243.161L65.3853 240.456Z" fill="#FFB8B8"/>
<path d="M108.809 239.296L107.656 254.756H114.957V240.456L108.809 239.296Z" fill="#FFB8B8"/>
<path d="M85.752 141.51V150.786L99.9705 153.105L112.267 148.081L109.961 142.283L85.752 141.51Z" fill="#FFB8B8"/>
<path d="M97.2804 149.24L84.9836 146.921L81.9094 172.044L74.2239 203.351C74.2239 203.351 62.6956 230.02 64.2327 236.204L65.0013 238.136L64.2327 241.615L71.9182 244.707L74.9924 239.683C74.9924 239.683 77.2981 243.161 81.1408 235.817C84.9836 228.474 101.123 182.866 101.123 182.866L103.813 190.596C103.117 192.981 102.986 195.495 103.429 197.94C104.197 201.805 104.966 213.787 104.966 213.787C104.966 213.787 100.739 234.658 106.503 236.204L107.656 240.842L115.726 241.615L117.263 236.977C117.263 236.977 124.948 234.271 123.027 220.744C121.105 207.216 120.337 162.768 120.337 162.768L112.767 143.994L97.2804 149.24Z" fill="#2F2E41"/>
<path d="M64.2327 252.437C64.2327 252.437 62.3113 250.891 61.5428 251.278C60.7742 251.664 52.7044 262.1 52.7044 262.1C52.7044 262.1 44.2503 268.67 50.3987 269.443C56.5472 270.216 73.4553 261.713 73.4553 259.781C73.4553 257.848 69.9025 253.008 69.9025 253.008C69.9025 253.008 67.3069 255.143 64.2327 252.437Z" fill="#2F2E41"/>
<path d="M106.887 251.278C106.887 251.278 113.804 250.846 114.957 252.028C116.11 253.21 115.726 259.008 115.726 259.008C115.726 259.008 116.494 269.443 110.346 269.443C104.197 269.443 105.734 262.486 105.734 262.486L106.887 251.278Z" fill="#2F2E41"/>
<path d="M99.9703 107.498C105.276 107.498 109.577 103.172 109.577 97.8352C109.577 92.4986 105.276 88.1725 99.9703 88.1725C94.6646 88.1725 90.3634 92.4986 90.3634 97.8352C90.3634 103.172 94.6646 107.498 99.9703 107.498Z" fill="#FFB8B8"/>
<path d="M93.6298 103.826C93.6298 103.826 99.0096 110.397 88.2499 115.421C77.4902 120.446 95.9354 141.317 95.9354 141.317C95.9354 141.317 117.455 133.2 115.533 117.354C115.533 117.354 102.468 115.035 105.542 104.212L93.6298 103.826Z" fill="#FFB8B8"/>
<path d="M87.8656 115.035C87.8656 115.035 79.0273 113.875 78.643 121.219C78.2587 128.562 78.643 146.342 78.643 146.342C78.643 146.342 74.8003 161.802 76.7216 175.329C76.7216 175.329 74.416 191.176 80.5644 190.403C86.7128 189.63 82.1015 174.17 82.1015 174.17L84.7914 149.047L83.6386 130.495L88.6342 119.286L87.8656 115.035Z" fill="#FFB8B8"/>
<path d="M113.302 116.742C113.302 116.742 121.682 116.581 122.066 122.765C122.45 128.949 119.376 147.888 119.376 147.888L114.765 150.207L110.538 137.065L113.302 116.742Z" fill="#FFB8B8"/>
<path d="M115.726 148.467L114.957 150.4L117.263 156.197C117.263 156.197 108.04 163.541 108.809 165.087C109.577 166.633 113.804 163.154 113.804 163.154L119.953 166.247C119.953 166.247 124.948 160.835 122.643 155.811C121.365 153.11 120.297 150.314 119.446 147.449C119.446 147.449 116.11 147.308 115.726 148.467Z" fill="#FFB8B8"/>
<path d="M86.1364 113.682L84.9836 126.437C84.9836 126.437 79.6037 131.848 85.7521 139.191L84.9836 144.989C84.9836 144.989 99.2018 144.216 101.892 144.989C104.582 145.762 112.889 144.366 112.889 144.366L113.036 139.964C113.036 139.964 116.878 134.553 115.726 126.437C114.573 118.32 115.726 115.614 115.726 115.614L113.036 115.228C113.036 115.228 111.306 127.016 99.3939 128.176C99.3939 128.176 84.5993 129.529 88.8263 113.682L86.1364 113.682Z" fill="#E6E6E6"/>
<path d="M100.931 82.1817C100.931 82.1817 90.9399 81.5587 88.6342 87.8078C86.3285 94.0568 82.2936 97.3375 82.2936 97.3375C82.2936 97.3375 75.9377 101.781 79.1157 109.714C79.1157 109.714 69.2283 116.397 75.761 122.333C75.761 122.333 75.3767 128.27 79.2195 132.332C79.2195 132.332 82.2937 133.894 81.1408 134.831C79.988 135.769 88.8263 135.144 88.0578 126.708C87.2892 118.272 92.477 112.329 92.477 112.329C92.477 112.329 87.4814 101.391 89.787 97.6419C91.1869 95.3655 91.7881 93.6679 92.9501 92.6854C93.5975 92.1512 94.1977 91.562 94.7441 90.9245C95.2595 90.2678 95.9611 89.7828 96.7567 89.5333C97.5524 89.2837 98.4047 89.2812 99.2018 89.5262C102.66 90.4636 103.429 93.2756 103.429 93.2756C103.429 93.2756 105.927 99.9933 110.154 103.118C114.381 106.242 106.887 111.71 106.887 111.71C106.887 111.71 108.19 118.148 111.573 121.959C114.957 125.77 110.598 129.093 110.346 129.52C109.769 130.495 107.467 136.652 116.976 136.679C116.976 136.679 119.184 132.019 122.258 129.207C125.333 126.395 123.027 118.272 123.027 118.272C123.027 118.272 127.638 115.46 122.643 108.586C122.643 108.586 124.18 102.337 119.953 98.2748C119.953 98.2748 113.996 79.9946 100.931 82.1817Z" fill="#2F2E41"/>
<path d="M89.5949 99.1879C90.1255 99.1879 90.5556 98.4957 90.5556 97.6419C90.5556 96.7881 90.1255 96.0959 89.5949 96.0959C89.0643 96.0959 88.6342 96.7881 88.6342 97.6419C88.6342 98.4957 89.0643 99.1879 89.5949 99.1879Z" fill="#FFB8B8"/>
<path d="M43.7092 257.068H20.1268V259.808H43.7092V257.068Z" fill="#2F2E41"/>
<path d="M43.7092 266.658C44.8418 266.658 45.7599 262.978 45.7599 258.438C45.7599 253.898 44.8418 250.218 43.7092 250.218C42.5767 250.218 41.6586 253.898 41.6586 258.438C41.6586 262.978 42.5767 266.658 43.7092 266.658Z" fill="#2F2E41"/>
<path d="M20.1268 266.658C21.2593 266.658 22.1774 262.978 22.1774 258.438C22.1774 253.898 21.2593 250.218 20.1268 250.218C18.9942 250.218 18.0761 253.898 18.0761 258.438C18.0761 262.978 18.9942 266.658 20.1268 266.658Z" fill="#2F2E41"/>
<path d="M38.1111 257.068H14.5286V259.808H38.1111V257.068Z" fill="#2F2E41"/>
<path d="M38.1111 266.658C39.2436 266.658 40.1617 262.978 40.1617 258.438C40.1617 253.898 39.2436 250.218 38.1111 250.218C36.9785 250.218 36.0604 253.898 36.0604 258.438C36.0604 262.978 36.9785 266.658 38.1111 266.658Z" fill="#2F2E41"/>
<path d="M14.5286 266.658C15.6612 266.658 16.5793 262.978 16.5793 258.438C16.5793 253.898 15.6612 250.218 14.5286 250.218C13.3961 250.218 12.478 253.898 12.478 258.438C12.478 262.978 13.3961 266.658 14.5286 266.658Z" fill="#2F2E41"/>
<path d="M306.391 284.686H282.809V287.426H306.391V284.686Z" fill="#2F2E41"/>
<path d="M306.391 294.275C307.524 294.275 308.442 290.595 308.442 286.056C308.442 281.516 307.524 277.836 306.391 277.836C305.258 277.836 304.34 281.516 304.34 286.056C304.34 290.595 305.258 294.275 306.391 294.275Z" fill="#2F2E41"/>
<path d="M282.809 294.275C283.941 294.275 284.859 290.595 284.859 286.056C284.859 281.516 283.941 277.836 282.809 277.836C281.676 277.836 280.758 281.516 280.758 286.056C280.758 290.595 281.676 294.275 282.809 294.275Z" fill="#2F2E41"/>
<defs>
<linearGradient id="paint0_linear_139_1338" x1="158.5" y1="93" x2="158.5" y2="342" gradientUnits="userSpaceOnUse">
<stop stop-color="#EBC6FB"/>
<stop offset="1" stop-color="#F8EAFF" stop-opacity="0"/>
</linearGradient>
</defs>
</svg>
