<svg width="247" height="187" viewBox="0 0 247 187" fill="none" xmlns="http://www.w3.org/2000/svg">
<g clip-path="url(#clip0_297_3079)">
<path d="M115.766 156.282C115.766 156.282 118.902 151.138 122.927 154.179C126.952 157.221 134.407 162.352 134.407 162.352C134.407 162.352 135.934 165.635 131.982 164.402C128.03 163.169 115.129 161.185 115.129 161.185L115.766 156.282Z" fill="#FEB8B8"/>
<path d="M28.144 123.614C29.1431 115.579 34.1224 107.663 41.7847 105.048C38.7629 113.318 38.7635 122.39 41.7865 130.659C42.9639 133.844 44.6051 137.264 43.4976 140.473C42.8085 142.471 41.1228 143.999 39.2385 144.954C37.3541 145.91 35.2627 146.365 33.1976 146.811L32.7912 147.148C29.5128 139.745 27.1448 131.648 28.144 123.614Z" fill="#F0F0F0"/>
<path d="M41.8609 105.2C37.3987 110.2 34.6253 116.479 33.9347 123.144C33.7605 124.577 33.8132 126.027 34.0908 127.443C34.4059 128.814 35.0821 130.075 36.0494 131.096C36.9322 132.066 37.9475 132.956 38.5791 134.123C38.8936 134.726 39.0771 135.388 39.1177 136.066C39.1583 136.745 39.055 137.424 38.8147 138.06C38.257 139.659 37.1579 140.963 36.0387 142.2C34.7961 143.574 33.4837 144.982 32.9555 146.804C32.8915 147.024 32.5527 146.912 32.6166 146.692C33.5356 143.522 36.6123 141.722 38.0795 138.867C38.7641 137.535 39.0515 135.989 38.4097 134.583C37.8484 133.353 36.8022 132.435 35.8999 131.461C34.9417 130.479 34.2385 129.277 33.8518 127.96C33.503 126.563 33.3944 125.117 33.5309 123.683C33.7866 120.451 34.5489 117.279 35.79 114.283C37.1875 110.856 39.1609 107.694 41.6248 104.933C41.7773 104.762 42.0124 105.031 41.8609 105.2Z" fill="white"/>
<path d="M34.0307 120.985C32.9281 120.717 31.9565 120.066 31.2895 119.149C30.6225 118.231 30.3035 117.106 30.3895 115.974C30.4077 115.745 30.7642 115.763 30.746 115.992C30.664 117.045 30.9612 118.093 31.5841 118.947C32.2069 119.8 33.1144 120.403 34.1426 120.646C34.366 120.699 34.2528 121.038 34.0307 120.985Z" fill="white"/>
<path d="M35.5369 130.663C37.5284 129.474 38.9985 127.578 39.6542 125.353C39.7189 125.133 40.0577 125.245 39.993 125.465C39.3064 127.779 37.7725 129.749 35.6974 130.982C35.4996 131.099 35.3401 130.78 35.5369 130.663Z" fill="white"/>
<path d="M37.5185 111.194C37.9236 111.387 38.3701 111.476 38.818 111.453C39.2658 111.43 39.7011 111.297 40.0845 111.064C40.2808 110.944 40.44 111.264 40.245 111.383C39.8202 111.638 39.3393 111.785 38.8445 111.811C38.3498 111.837 37.8561 111.742 37.4067 111.533C37.3626 111.517 37.3264 111.485 37.3053 111.443C37.2843 111.401 37.2799 111.353 37.2932 111.308C37.3082 111.263 37.3403 111.226 37.3825 111.205C37.4247 111.184 37.4736 111.18 37.5185 111.194Z" fill="white"/>
<path d="M65.1408 119.399C65.0203 119.477 64.8999 119.555 64.7793 119.637C63.1656 120.698 61.6408 121.888 60.2199 123.196C60.1084 123.296 59.997 123.398 59.8886 123.5C56.4989 126.688 53.7306 130.478 51.7243 134.676C50.9274 136.348 50.2589 138.077 49.7245 139.85C48.9866 142.299 48.3814 145.012 46.9207 147.015C46.7707 147.226 46.6078 147.427 46.4328 147.617H33.233C33.203 147.602 33.1729 147.59 33.1427 147.575L32.6157 147.599C32.6369 147.506 32.6609 147.409 32.682 147.316C32.6941 147.262 32.7091 147.208 32.7212 147.153C32.7301 147.117 32.7392 147.081 32.7453 147.048C32.7482 147.036 32.7513 147.024 32.7542 147.015C32.7603 146.982 32.7694 146.952 32.7754 146.922C32.9079 146.382 33.0444 145.843 33.185 145.304C33.185 145.301 33.185 145.301 33.1879 145.298C34.2691 141.194 35.7026 137.143 37.7053 133.439C37.7656 133.327 37.8257 133.213 37.892 133.101C38.804 131.437 39.8505 129.849 41.0211 128.355C41.6647 127.539 42.3492 126.756 43.072 126.009C44.9433 124.083 47.1059 122.463 49.4806 121.209C54.2148 118.709 59.6958 117.751 64.7554 119.278C64.8848 119.317 65.0114 119.357 65.1408 119.399Z" fill="#F0F0F0"/>
<path d="M65.1111 119.566C58.5381 120.872 52.5435 124.215 47.9789 129.122C46.9775 130.16 46.1461 131.35 45.5152 132.648C44.9416 133.932 44.7223 135.346 44.88 136.744C45.0009 138.05 45.2758 139.371 45.0771 140.684C44.9655 141.354 44.7134 141.993 44.3373 142.56C43.9613 143.126 43.4699 143.606 42.8953 143.969C41.487 144.91 39.8245 145.289 38.1858 145.604C36.3664 145.953 34.471 146.286 32.9525 147.423C32.7685 147.56 32.5656 147.267 32.7493 147.129C35.3912 145.152 38.9317 145.567 41.8219 144.171C43.1705 143.52 44.331 142.458 44.6651 140.949C44.9572 139.629 44.6749 138.266 44.5411 136.945C44.3672 135.584 44.5292 134.201 45.013 132.917C45.5757 131.591 46.3599 130.371 47.332 129.309C49.4823 126.882 52.0008 124.808 54.7953 123.163C57.9743 121.269 61.4539 119.932 65.0837 119.211C65.3083 119.166 65.3343 119.522 65.1111 119.566Z" fill="white"/>
<path d="M49.3557 127.455C48.6365 126.577 48.2526 125.473 48.2727 124.338C48.2928 123.204 48.7155 122.113 49.4653 121.262C49.6176 121.09 49.8917 121.319 49.7392 121.491C49.0395 122.282 48.6459 123.298 48.6293 124.355C48.6128 125.411 48.9745 126.439 49.649 127.252C49.7954 127.429 49.5012 127.631 49.3557 127.455Z" fill="white"/>
<path d="M44.7314 136.09C47.0374 136.339 49.3527 135.71 51.2158 134.329C51.4002 134.192 51.6032 134.485 51.4189 134.622C49.4776 136.056 47.0668 136.706 44.6677 136.441C44.439 136.415 44.504 136.064 44.7314 136.09Z" fill="white"/>
<path d="M58.035 121.738C58.2425 122.135 58.5456 122.475 58.9169 122.727C59.2881 122.978 59.7161 123.134 60.1623 123.179C60.3911 123.201 60.3259 123.552 60.0985 123.53C59.6058 123.478 59.1334 123.305 58.7226 123.028C58.3117 122.752 57.975 122.378 57.7417 121.941C57.7163 121.902 57.7068 121.854 57.7151 121.808C57.7235 121.762 57.7491 121.721 57.7868 121.693C57.8257 121.666 57.8737 121.656 57.9202 121.664C57.9667 121.673 58.0079 121.699 58.035 121.738Z" fill="white"/>
<path d="M134.601 176.863C134.988 173.749 136.918 170.681 139.888 169.668C138.716 172.873 138.717 176.389 139.888 179.593C140.345 180.828 140.981 182.153 140.551 183.397C140.244 184.166 139.653 184.787 138.901 185.133C138.154 185.472 137.368 185.714 136.56 185.853L136.402 185.983C135.132 183.114 134.214 179.977 134.601 176.863Z" fill="#F0F0F0"/>
<path d="M139.917 169.727C138.188 171.664 137.113 174.098 136.845 176.681C136.778 177.236 136.798 177.798 136.906 178.347C137.028 178.878 137.29 179.367 137.665 179.763C138.038 180.113 138.367 180.507 138.645 180.936C138.767 181.169 138.838 181.426 138.854 181.689C138.87 181.952 138.83 182.215 138.737 182.461C138.489 183.063 138.123 183.609 137.661 184.066C137.179 184.599 136.671 185.144 136.466 185.85C136.441 185.936 136.31 185.892 136.335 185.807C136.691 184.579 137.883 183.881 138.452 182.775C138.598 182.526 138.686 182.247 138.708 181.959C138.73 181.671 138.686 181.382 138.58 181.114C138.322 180.662 137.994 180.253 137.607 179.904C137.236 179.523 136.963 179.058 136.813 178.548C136.678 178.006 136.636 177.445 136.689 176.89C136.788 175.637 137.083 174.408 137.564 173.247C138.106 171.919 138.871 170.693 139.826 169.623C139.885 169.557 139.976 169.661 139.917 169.727Z" fill="white"/>
<path d="M136.883 175.844C136.455 175.74 136.079 175.488 135.82 175.132C135.562 174.777 135.438 174.341 135.471 173.902C135.478 173.813 135.617 173.82 135.61 173.909C135.578 174.317 135.693 174.723 135.934 175.054C136.176 175.385 136.527 175.619 136.926 175.713C137.012 175.733 136.969 175.865 136.883 175.844Z" fill="white"/>
<path d="M137.466 179.595C138.238 179.134 138.808 178.399 139.062 177.537C139.087 177.451 139.218 177.495 139.193 177.58C138.927 178.477 138.333 179.241 137.528 179.718C137.452 179.764 137.39 179.64 137.466 179.595Z" fill="white"/>
<path d="M138.234 172.05C138.391 172.124 138.564 172.159 138.738 172.15C138.911 172.141 139.08 172.089 139.229 171.999C139.305 171.953 139.367 172.077 139.291 172.123C139.126 172.222 138.94 172.279 138.748 172.289C138.556 172.299 138.365 172.262 138.191 172.181C138.174 172.175 138.16 172.162 138.152 172.146C138.144 172.13 138.142 172.111 138.147 172.094C138.153 172.076 138.165 172.062 138.182 172.054C138.198 172.046 138.217 172.044 138.234 172.05Z" fill="white"/>
<path d="M148.939 175.229C148.892 175.26 148.846 175.29 148.799 175.321C148.174 175.733 147.583 176.194 147.032 176.701C146.989 176.74 146.946 176.779 146.904 176.819C145.59 178.054 144.517 179.523 143.74 181.15C143.431 181.798 143.172 182.468 142.965 183.155C142.679 184.104 142.444 185.156 141.878 185.932C141.82 186.014 141.757 186.092 141.689 186.165H136.573C136.562 186.16 136.55 186.155 136.538 186.149L136.334 186.158C136.342 186.122 136.351 186.085 136.36 186.049C136.364 186.028 136.37 186.007 136.375 185.986C136.378 185.972 136.382 185.958 136.384 185.945C136.385 185.94 136.387 185.935 136.388 185.932C136.39 185.919 136.394 185.907 136.396 185.896C136.447 185.687 136.5 185.478 136.555 185.269L136.556 185.267C136.955 183.671 137.543 182.128 138.306 180.67C138.33 180.627 138.353 180.583 138.379 180.54C138.732 179.895 139.138 179.279 139.591 178.7C139.841 178.384 140.106 178.081 140.386 177.791C141.112 177.045 141.95 176.417 142.87 175.931C144.705 174.962 146.829 174.591 148.79 175.183C148.84 175.198 148.889 175.213 148.939 175.229Z" fill="#F0F0F0"/>
<path d="M148.928 175.294C146.38 175.8 144.057 177.096 142.288 178.997C141.9 179.4 141.578 179.861 141.333 180.364C141.111 180.862 141.026 181.41 141.087 181.951C141.174 182.455 141.2 182.968 141.163 183.478C141.12 183.738 141.022 183.986 140.877 184.205C140.731 184.425 140.54 184.611 140.318 184.751C139.758 185.083 139.137 185.298 138.493 185.385C137.787 185.52 137.053 185.65 136.464 186.09C136.393 186.143 136.314 186.03 136.386 185.976C137.41 185.21 138.782 185.371 139.902 184.83C140.169 184.719 140.406 184.55 140.597 184.333C140.788 184.117 140.927 183.859 141.004 183.581C141.07 183.065 141.054 182.541 140.956 182.029C140.888 181.502 140.951 180.966 141.139 180.468C141.357 179.955 141.661 179.482 142.037 179.07C142.871 178.129 143.847 177.326 144.93 176.688C146.162 175.954 147.51 175.436 148.917 175.156C149.004 175.139 149.014 175.277 148.928 175.294Z" fill="white"/>
<path d="M142.822 178.352C142.543 178.011 142.394 177.583 142.402 177.144C142.41 176.704 142.574 176.281 142.864 175.951C142.923 175.885 143.029 175.973 142.97 176.04C142.699 176.347 142.547 176.741 142.54 177.15C142.534 177.559 142.674 177.958 142.935 178.273C142.992 178.341 142.878 178.42 142.822 178.352Z" fill="white"/>
<path d="M141.03 181.698C141.923 181.795 142.821 181.551 143.543 181.015C143.614 180.962 143.693 181.076 143.621 181.129C142.869 181.685 141.935 181.937 141.005 181.834C140.916 181.824 140.942 181.688 141.03 181.698Z" fill="white"/>
<path d="M146.185 176.136C146.266 176.29 146.383 176.422 146.527 176.519C146.671 176.617 146.837 176.677 147.01 176.694C147.099 176.703 147.073 176.839 146.985 176.83C146.794 176.81 146.611 176.743 146.452 176.636C146.293 176.529 146.162 176.384 146.072 176.215C146.062 176.199 146.058 176.181 146.061 176.163C146.065 176.145 146.075 176.129 146.089 176.118C146.104 176.108 146.123 176.104 146.141 176.107C146.159 176.111 146.175 176.121 146.185 176.136Z" fill="white"/>
<path d="M222.492 110.722C220.956 98.3733 213.303 86.2058 201.525 82.187C206.17 94.8977 206.169 108.842 201.523 121.552C199.713 126.447 197.19 131.703 198.893 136.637C199.952 139.707 202.543 142.055 205.439 143.524C208.336 144.993 211.55 145.693 214.724 146.379L215.349 146.895C220.388 135.517 224.028 123.072 222.492 110.722Z" fill="#F0F0F0"/>
<path d="M201.409 82.4206C208.267 90.1054 212.53 99.7559 213.592 110.001C213.806 112.198 213.832 114.444 213.352 116.609C212.867 118.716 211.828 120.654 210.341 122.223C208.984 123.714 207.424 125.082 206.453 126.877C205.43 128.768 205.39 130.918 206.091 132.927C206.948 135.385 208.637 137.389 210.358 139.291C212.268 141.403 214.285 143.567 215.097 146.367C215.195 146.706 215.716 146.534 215.618 146.195C214.205 141.323 209.476 138.556 207.221 134.169C206.168 132.121 205.727 129.744 206.713 127.583C207.576 125.693 209.184 124.281 210.571 122.784C212.027 121.211 213.144 119.486 213.719 117.404C214.307 115.274 214.369 113.022 214.212 110.83C213.819 105.861 212.647 100.986 210.74 96.3813C208.592 91.1143 205.559 86.2535 201.772 82.0092C201.537 81.7466 201.176 82.1597 201.409 82.4206Z" fill="white"/>
<path d="M213.444 106.682C215.139 106.271 216.632 105.27 217.657 103.859C218.682 102.448 219.173 100.719 219.041 98.9801C219.013 98.6283 218.465 98.6552 218.493 99.0074C218.619 100.627 218.162 102.237 217.205 103.549C216.247 104.861 214.852 105.788 213.272 106.161C212.929 106.243 213.103 106.763 213.444 106.682Z" fill="white"/>
<path d="M211.129 121.558C208.068 119.73 205.808 116.816 204.8 113.396C204.701 113.057 204.18 113.23 204.279 113.568C205.335 117.125 207.692 120.153 210.882 122.048C211.186 122.228 211.431 121.737 211.129 121.558Z" fill="white"/>
<path d="M208.083 91.6338C207.46 91.9296 206.774 92.0662 206.086 92.0313C205.397 91.9963 204.728 91.791 204.139 91.4336C203.837 91.2494 203.593 91.7405 203.892 91.9234C204.545 92.3152 205.284 92.5412 206.045 92.5815C206.805 92.6218 207.564 92.4752 208.255 92.1546C208.323 92.1298 208.378 92.0802 208.411 92.0159C208.443 91.9516 208.45 91.8773 208.429 91.8082C208.406 91.7394 208.357 91.6824 208.292 91.6498C208.227 91.6171 208.152 91.6114 208.083 91.6338Z" fill="white"/>
<path d="M165.626 104.244C165.812 104.364 165.997 104.485 166.182 104.61C168.662 106.241 171.006 108.071 173.19 110.081C173.361 110.234 173.533 110.391 173.699 110.549C178.909 115.449 183.165 121.273 186.248 127.727C187.473 130.296 188.501 132.954 189.322 135.679C190.456 139.443 191.386 143.613 193.632 146.691C193.862 147.015 194.113 147.324 194.382 147.617H214.67C214.716 147.594 214.763 147.576 214.809 147.552L215.619 147.589C215.586 147.446 215.55 147.298 215.517 147.154C215.499 147.071 215.476 146.988 215.457 146.904C215.443 146.849 215.429 146.793 215.42 146.742C215.415 146.724 215.411 146.705 215.406 146.691C215.397 146.641 215.383 146.594 215.374 146.548C215.17 145.719 214.96 144.891 214.744 144.062C214.744 144.058 214.744 144.058 214.74 144.053C213.078 137.744 210.874 131.518 207.796 125.824C207.703 125.653 207.611 125.477 207.509 125.306C206.107 122.747 204.499 120.307 202.7 118.011C201.71 116.756 200.658 115.553 199.547 114.405C196.671 111.444 193.347 108.954 189.697 107.026C182.42 103.184 173.996 101.712 166.219 104.059C166.02 104.119 165.825 104.179 165.626 104.244Z" fill="#F0F0F0"/>
<path d="M165.672 104.502C175.775 106.508 184.989 111.647 192.005 119.188C193.498 120.813 194.872 122.591 195.792 124.609C196.673 126.582 197.011 128.756 196.768 130.904C196.582 132.911 196.16 134.943 196.465 136.96C196.787 139.087 198.05 140.827 199.819 142.009C201.983 143.456 204.539 144.039 207.057 144.522C209.854 145.058 212.767 145.571 215.101 147.318C215.384 147.53 215.696 147.079 215.414 146.867C211.353 143.828 205.911 144.466 201.469 142.32C199.396 141.319 197.612 139.687 197.099 137.368C196.65 135.339 197.083 133.244 197.289 131.213C197.505 129.081 197.358 127.031 196.564 125.022C195.751 122.968 194.445 121.132 192.999 119.476C189.694 115.746 185.823 112.558 181.528 110.03C176.642 107.118 171.293 105.063 165.714 103.955C165.369 103.886 165.329 104.434 165.672 104.502Z" fill="white"/>
<path d="M189.889 116.627C190.994 115.278 191.584 113.58 191.553 111.836C191.522 110.093 190.873 108.417 189.72 107.108C189.486 106.844 189.065 107.195 189.299 107.46C190.375 108.676 190.98 110.238 191.005 111.862C191.031 113.485 190.475 115.065 189.438 116.315C189.213 116.587 189.665 116.897 189.889 116.627Z" fill="white"/>
<path d="M196.997 129.899C193.452 130.282 189.893 129.316 187.03 127.192C186.746 126.981 186.434 127.432 186.718 127.643C189.702 129.847 193.407 130.845 197.095 130.438C197.446 130.399 197.346 129.86 196.997 129.899Z" fill="white"/>
<path d="M176.548 107.839C176.229 108.451 175.763 108.973 175.193 109.359C174.622 109.746 173.964 109.985 173.278 110.054C172.927 110.089 173.027 110.628 173.376 110.594C174.134 110.514 174.86 110.249 175.491 109.823C176.123 109.398 176.64 108.824 176.999 108.152C177.038 108.091 177.053 108.018 177.04 107.947C177.027 107.876 176.988 107.813 176.93 107.77C176.87 107.729 176.796 107.713 176.725 107.726C176.653 107.739 176.59 107.78 176.548 107.839Z" fill="white"/>
<path d="M246.144 147.918H0.301158C0.221286 147.918 0.144685 147.887 0.0882069 147.83C0.0317288 147.774 0 147.697 0 147.617C0 147.537 0.0317288 147.461 0.0882069 147.404C0.144685 147.348 0.221286 147.316 0.301158 147.316H246.046C246.126 147.316 246.203 147.348 246.259 147.404C246.315 147.461 246.347 147.537 246.347 147.617C246.347 147.784 246.311 147.918 246.144 147.918Z" fill="#CACACA"/>
<path d="M86.2296 174.42H31.9227C31.8429 174.42 31.7663 174.389 31.7098 174.332C31.6533 174.276 31.6216 174.199 31.6216 174.119C31.6216 174.039 31.6533 173.963 31.7098 173.906C31.7663 173.85 31.8429 173.818 31.9227 173.818H86.1312C86.211 173.818 86.2876 173.85 86.3441 173.906C86.4006 173.963 86.4323 174.039 86.4323 174.119C86.4323 174.285 86.3959 174.42 86.2296 174.42Z" fill="#CACACA"/>
<path d="M171.457 186.166H117.151C117.071 186.166 116.994 186.134 116.938 186.077C116.881 186.021 116.849 185.944 116.849 185.864C116.849 185.785 116.881 185.708 116.938 185.651C116.994 185.595 117.071 185.563 117.151 185.563H171.359C171.439 185.563 171.515 185.595 171.572 185.651C171.628 185.708 171.66 185.785 171.66 185.864C171.66 186.031 171.624 186.166 171.457 186.166Z" fill="#CACACA"/>
<path d="M222.654 174.119H168.347C168.267 174.119 168.191 174.087 168.134 174.031C168.078 173.974 168.046 173.898 168.046 173.818C168.046 173.738 168.078 173.661 168.134 173.605C168.191 173.548 168.267 173.517 168.347 173.517H222.556C222.636 173.517 222.712 173.548 222.769 173.605C222.825 173.661 222.857 173.738 222.857 173.818C222.857 173.984 222.82 174.119 222.654 174.119Z" fill="#CACACA"/>
<path d="M100.363 162.675C96.9898 162.675 93.9013 162.352 91.4475 161.588C88.5307 160.68 86.6994 159.211 86.0036 157.219C85.6766 156.374 85.579 155.457 85.7206 154.561C85.8622 153.666 86.2379 152.823 86.8098 152.12C91.1247 146.498 106.098 144.912 108.107 144.724L112.183 137.007C112.444 135.165 111.21 133.771 113.342 133.736L138.559 133.394C140.653 133.35 140.058 134.646 140.417 136.442L144.259 143.3L127.723 150.279L130.223 156.371L130.06 156.466C125.221 159.273 111.303 162.675 100.363 162.675Z" fill="#2F2E41"/>
<path d="M141.97 143.593C141.97 143.593 165.063 140.95 163.557 151.521C162.05 162.092 144.48 169.58 117.873 151.521L120.885 146.236C120.885 146.236 130.8 145.743 136.824 143.1L141.97 143.593Z" fill="#2F2E41"/>
<path d="M109.276 95.7029C109.276 95.7029 104.887 94.9049 103.69 101.688C102.493 108.471 100.576 124.539 100.576 124.539L94.6221 145.178C93.92 145.551 93.3383 146.116 92.9451 146.807C92.552 147.498 92.3636 148.286 92.4018 149.081C92.4401 149.875 92.7035 150.641 93.1613 151.291C93.6192 151.941 94.2524 152.448 94.9872 152.751C95.722 153.055 96.528 153.143 97.311 153.005C98.0941 152.868 98.8218 152.51 99.4093 151.975C99.9968 151.439 100.42 150.747 100.629 149.98C100.838 149.213 100.824 148.403 100.59 147.643L108.556 125.737L110.074 106.877V96.9941C110.074 96.726 110 96.4632 109.859 96.2352C109.718 96.0071 109.516 95.8228 109.276 95.7029Z" fill="#FEB8B8"/>
<path d="M140.17 95.7029C140.17 95.7029 144.559 94.9049 145.756 101.688C146.953 108.471 148.871 124.539 148.871 124.539L154.825 145.178C155.527 145.551 156.108 146.116 156.502 146.807C156.895 147.498 157.083 148.286 157.045 149.081C157.007 149.875 156.743 150.641 156.285 151.291C155.828 151.941 155.194 152.448 154.459 152.751C153.725 153.055 152.919 153.143 152.136 153.005C151.353 152.868 150.625 152.51 150.037 151.975C149.45 151.439 149.027 150.747 148.818 149.98C148.609 149.213 148.622 148.403 148.857 147.643L140.891 125.737L139.372 106.877V96.9941C139.372 96.726 139.447 96.4632 139.588 96.2352C139.729 96.0071 139.931 95.8228 140.17 95.7029Z" fill="#FEB8B8"/>
<path d="M139.836 90.0961L131.534 86.991L115.442 86.7833L108.515 90.0961L110.461 101.277C110.461 101.277 106.533 107.928 110.857 114.58L111.828 138.281C111.828 138.281 127.342 147.278 140.438 136.474L137.478 114.438C137.478 114.438 142.429 104.213 138.591 100.415L139.836 90.0961Z" fill="#5F3C6F"/>
<path d="M136.454 93.5706L139.836 90.0961C139.836 90.0961 147.216 93.9778 147.064 106.961L137.754 104.092L136.454 93.5706Z" fill="#5F3C6F"/>
<path d="M112.272 93.5706L108.679 89.978C108.679 89.978 102.34 94.8814 102.492 107.864L110.972 104.092L112.272 93.5706Z" fill="#5F3C6F"/>
<path d="M135.691 153.713C135.691 153.713 133.105 148.272 128.786 150.881C124.468 153.489 116.522 157.821 116.522 157.821C116.522 157.821 114.663 160.928 118.721 160.111C122.78 159.294 135.817 158.656 135.817 158.656L135.691 153.713Z" fill="#FEB8B8"/>
<path d="M128.507 56.4516C128.543 56.4165 128.581 56.385 128.617 56.349C130.928 54.0382 131.397 50.7598 129.663 49.0266C128.026 47.3887 125.009 47.7193 122.732 49.7107C120.779 47.8519 118.161 47.3337 116.467 48.6169C114.513 50.0965 114.528 53.4081 116.501 56.0135C116.636 56.1919 116.778 56.3606 116.923 56.5229C114.298 57.4839 112.031 59.2284 110.429 61.5201C108.828 63.8118 107.969 66.5402 107.969 69.3361V82.3221C107.969 82.7028 108.044 83.0799 108.189 83.4317C108.335 83.7835 108.549 84.1032 108.818 84.3725C109.087 84.6417 109.407 84.8553 109.759 85.001C110.111 85.1467 110.488 85.2217 110.868 85.2217H134.869C135.613 85.2217 136.325 84.9265 136.851 84.4009C137.377 83.8754 137.672 83.1626 137.672 82.4193V69.3361C137.671 66.5026 136.789 63.7395 135.146 61.4306C133.504 59.1217 131.183 57.3815 128.507 56.4516Z" fill="#2F2E41"/>
<path d="M131.253 80.5905C135.701 76.1427 135.701 68.9315 131.253 64.4838C126.805 60.036 119.594 60.036 115.146 64.4838C110.698 68.9315 110.698 76.1427 115.146 80.5905C119.594 85.0382 126.805 85.0382 131.253 80.5905Z" fill="#FFB6B6"/>
<path d="M111.232 65.3733C113.835 67.1671 116.924 68.1217 120.084 68.1091C118.957 68.8909 117.673 69.419 116.322 69.6569C120.525 70.5584 124.868 70.5828 129.081 69.7286C130.017 69.5785 130.92 69.2682 131.751 68.8113C132.165 68.58 132.526 68.2642 132.81 67.8843C133.094 67.5045 133.295 67.0691 133.4 66.6065C133.68 65.0074 132.434 63.5546 131.139 62.5754C129.156 61.0992 126.87 60.0821 124.446 59.5978C122.023 59.1134 119.521 59.1739 117.124 59.7748C115.558 60.1795 113.99 60.8632 112.973 62.1205C111.956 63.3778 111.655 65.3162 112.623 66.6109L111.232 65.3733Z" fill="#2F2E41"/>
<path d="M50.3142 42.646L50.6731 42.1621L60.2346 49.2544C59.715 47.6707 57.8758 42.6504 54.8608 40.6472C51.2589 38.2542 48.7247 38.9986 47.3441 41.0766C45.9635 43.1547 46.2591 45.7793 49.861 48.1724C52.9142 50.201 58.3533 49.919 59.9402 49.786L50.3142 42.646Z" fill="#F2F2F2"/>
<path d="M194.177 3.8163L194.621 4.2236L186.572 12.9956C188.201 12.6435 193.386 11.3364 195.692 8.54611C198.446 5.21265 197.97 2.61481 196.046 1.02552C194.123 -0.563769 191.482 -0.542721 188.727 2.79076C186.392 5.61641 186.107 11.0553 186.074 12.6474L194.177 3.8163Z" fill="#F2F2F2"/>
<path d="M64.3776 97.4765L64.8215 97.8838L56.7732 106.656C58.4023 106.304 63.5868 104.997 65.8927 102.206C68.6473 98.8728 68.1706 96.275 66.2474 94.6857C64.3242 93.0964 61.6831 93.1174 58.9283 96.4509C56.5931 99.2766 56.3079 104.715 56.2751 106.308L64.3776 97.4765Z" fill="#F2F2F2"/>
<path d="M132.432 13.8684L132.954 14.1701L126.991 24.4742C128.506 23.7783 133.285 21.3817 134.934 18.159C136.903 14.3089 135.876 11.8756 133.655 10.7395C131.433 9.60338 128.859 10.1947 126.89 14.0448C125.221 17.3084 126.118 22.6804 126.43 24.2419L132.432 13.8684Z" fill="#F2F2F2"/>
<path d="M188.147 78.3161L188.668 78.6179L182.706 88.922C184.22 88.2261 189 85.8295 190.648 82.6067C192.617 78.7567 191.59 76.3233 189.369 75.1872C187.148 74.0511 184.574 74.6425 182.604 78.4926C180.935 81.7561 181.832 87.1282 182.144 88.6897L188.147 78.3161Z" fill="#F2F2F2"/>
</g>
<defs>
<clipPath id="clip0_297_3079">
<rect width="246.347" height="186.165" fill="white"/>
</clipPath>
</defs>
</svg>
