<svg width="125" height="119" viewBox="0 0 125 119" fill="none" xmlns="http://www.w3.org/2000/svg">
<path d="M79.8187 93.0043L106.961 95.9806C107.607 96.0514 107.705 96.8199 107.092 97.0089L49.6729 114.727C49.5499 114.765 49.4161 114.768 49.2906 114.737L15.4463 106.282C14.8311 106.129 14.8594 105.372 15.4849 105.252L79.6059 93.0127C79.6757 92.9993 79.7477 92.9965 79.8187 93.0043Z" fill="#7B6884"/>
<path d="M96.3474 78.6017C96.3474 78.6017 98.6713 78.0867 99.1877 79.6318C99.7042 81.1769 99.9624 84.0097 99.9624 84.0097V86.438C99.9624 86.438 103.577 92.7654 99.4459 94.8255C95.3146 96.8857 92.9907 96.1131 92.9907 96.1131C92.9907 96.1131 90.4086 94.8255 91.6996 93.0229L92.9907 91.2203C92.9907 91.2203 93.0152 87.6745 92.4865 87.3872C91.9578 87.0999 91.4414 86.3274 91.4414 86.3274L90.925 80.4044C90.925 80.4044 93.5071 77.5717 96.3474 78.6017Z" fill="#090814"/>
<path d="M68.4264 13.1095C68.4264 13.1095 66.2676 20.8717 68.3967 23.0833C70.5259 25.2949 70.0312 26.9906 70.0312 26.9906C70.0312 26.9906 75.4098 28.7029 76.1955 22.3635L74.8838 27.2012C74.8838 27.2012 79.9332 26.8039 78.4572 20.5127C76.9812 14.2215 75.1516 14.215 76.1955 12.2869C77.2394 10.3587 77.2394 0.572946 71.3006 0.0579042C65.3617 -0.457138 66.1363 2.63311 66.1363 2.63311L68.4264 13.1095Z" fill="#090814"/>
<path d="M44.8945 39.3294C44.8945 39.3294 39.0245 50.7896 40.5738 53.8798C42.123 56.9701 47.5854 63.1235 47.5854 63.1235H53.3486L49.6013 58.4545L46.831 51.2265L49.8694 44.3677L44.8945 39.3294Z" fill="#ED9DA0"/>
<path d="M67.9554 14.128C68.1988 8.91546 64.1592 4.49299 58.9327 4.25017C53.7062 4.00735 49.2718 8.03614 49.0283 13.2487C48.8309 17.4761 51.4507 21.1834 55.2359 22.5634L56.5022 34.7067L66.1905 27.3888C66.1905 27.3888 64.2953 24.7357 63.3496 21.7996C65.9823 20.228 67.8019 17.4139 67.9554 14.128Z" fill="#ED9DA0"/>
<path d="M55.71 26.4498C55.71 26.4498 54.9353 31.3427 65.0056 24.9047L74.7867 30.3166L71.43 45.2528L70.9136 51.6909C70.9136 51.6909 72.721 52.9785 72.4628 54.7811C72.4628 54.7811 76.5942 57.0988 76.5942 61.2191C76.5942 61.2191 80.2091 64.3094 77.3688 65.0819C74.5285 65.8545 65.4911 64.5669 65.4911 64.5669L52.8388 60.4466C52.8388 60.4466 50.7731 58.8546 52.8388 56.9466L49.7403 47.313C49.7403 47.313 47.8361 45.5104 48.53 42.8064C48.53 42.8064 43.5432 42.1626 43.0268 40.875C43.0268 40.875 48.7074 29.5441 50.5149 29.029C52.3224 28.514 55.71 26.4498 55.71 26.4498Z" fill="#D8BAE8"/>
<path d="M48.6588 42.8159C48.6619 42.7749 48.9748 38.7114 49.9769 37.2123C51.0238 35.6461 50.7833 33.3603 50.7724 33.2637L50.5157 33.2921C50.5183 33.315 50.756 35.5824 49.762 37.0695C48.7224 38.6249 48.4137 42.6273 48.4011 42.7968L48.6588 42.8159Z" fill="#090814"/>
<path d="M77.4976 63.9231C77.4976 63.9231 82.9201 75.2541 73.6245 77.5717C64.3289 79.8894 51.4183 73.7089 51.4183 73.7089C51.4183 73.7089 52.9676 81.6921 50.9019 85.5549L49.8691 92.7655C49.8691 92.7655 44.7049 93.185 43.0265 91.9452L41.0899 72.9364C41.0899 72.9364 40.3153 65.2108 42.6392 64.4382C44.9631 63.6656 52.9676 61.863 52.9676 61.863L53.7853 60.1873L77.4976 63.9231Z" fill="#090814"/>
<path d="M74.3995 75.254L78.0144 85.5548L89.3757 81.692C89.3757 81.692 91.9578 81.9495 91.1832 87.0999C91.1832 87.0999 86.5354 89.6751 82.1458 93.2804C77.7562 96.8857 72.8304 96.1132 70.9037 93.2804C68.977 90.4477 60.8715 80.8793 60.0182 76.779L74.3995 75.254Z" fill="#090814"/>
<path d="M49.095 91.2202L49.8696 92.7653L48.5786 102.294L42.1233 101.006L43.027 91.945L49.095 91.2202Z" fill="#ED9DA0"/>
<path d="M45.2214 99.2034C45.2214 99.2034 49.0457 101.264 49.3283 96.757C49.3283 96.757 51.2316 97.5681 51.4541 99.6734C51.6766 101.779 52.1931 103.839 52.1931 103.839C52.1931 103.839 54.0005 106.929 51.4184 107.444C48.8363 107.959 46.5124 107.959 46.5124 107.959C46.5124 107.959 37.2168 113.625 32.0526 107.444C32.0526 107.444 31.0198 105.641 33.3437 104.869C35.6676 104.096 37.2168 102.551 37.2168 102.551L40.9661 98.4309C40.9661 98.4309 41.3299 95.5981 43.4047 96.757C45.4796 97.9158 45.2214 99.2034 45.2214 99.2034Z" fill="#090814"/>
<path d="M89.3752 82.2071V81.6921L93.5066 80.147C93.5066 80.147 96.3629 82.3123 94.5474 85.4787L91.1827 87.1L89.3752 82.2071Z" fill="#ED9DA0"/>
<path d="M53.3489 2.72438C53.3489 2.72438 60.7145 -2.25974 66.1369 2.63315C71.5593 7.52605 71.9241 16.5015 63.3498 21.7996L64.0712 18.0844C64.0712 18.0844 66.1369 14.9941 62.7802 15.2517C59.4234 15.5092 59.9398 12.4189 59.9398 12.4189C59.9398 12.4189 52.7506 9.18692 52.7303 6.94012L50.0497 11.1408C50.0497 11.1408 44.6922 6.67841 53.3489 2.72438Z" fill="#090814"/>
<path d="M64.587 2.63314C64.587 2.63314 65.8857 -0.374705 67.5602 1.90178C69.2348 4.17827 67.9654 5.80906 67.9654 5.80906L64.587 2.63314Z" fill="#F9EDFF"/>
<path d="M64.3449 63.0227C65.3074 62.4145 66.3989 62.242 67.323 62.4638L67.8623 62.1026C69.507 60.7069 77.4665 53.8758 78.4576 51.5654L73.1084 44.094L79.0702 39.3294C79.0702 39.3294 86.5354 51.3046 84.4697 54.3949C82.6237 57.1566 72.2328 63.714 70.0441 65.0772L69.3215 65.6102C69.1277 66.5382 68.5052 67.4487 67.5425 68.0569C65.8582 69.121 63.777 68.8566 62.8941 67.4666C62.0111 66.0764 62.6606 64.0869 64.3449 63.0227Z" fill="#ED9DA0"/>
<path d="M106.602 102.314C106.602 102.314 106.86 99.4817 107.634 99.2242C108.409 98.9667 110.475 98.4516 110.475 98.4516C110.475 98.4516 114.864 97.9366 114.864 104.117C114.864 104.117 114.435 105.755 113.875 105.966C113.315 106.177 111.249 106.95 111.249 106.95C111.249 106.95 107.893 106.95 107.893 105.405L102.081 106.95C102.081 106.95 102.728 109.783 101.437 110.555C100.146 111.328 98.188 111.939 98.188 111.939C98.188 111.939 94.4656 110.813 93.9492 109.01C93.4328 107.207 92.6581 103.087 94.982 102.572L97.5641 101.542C97.5641 101.542 100.275 101.671 101.566 103.731L106.602 102.314Z" fill="#D6D6E3"/>
<path d="M23.6807 85.6867V88.0117C23.6807 88.0117 25.23 88.0044 25.23 91.0947V104.761C25.23 104.761 24.7563 106.546 21.615 106.546C18.5165 106.546 18.0001 105.258 18.0001 105.258V91.2939C18.0001 91.2939 18.0001 88.2619 19.8076 87.7469L19.844 85.6867C19.844 85.6867 21.0986 84.1416 23.6807 85.6867Z" fill="#D6D6E3"/>
<path d="M109.342 76.8064L110.589 76.9175C110.589 76.9175 111.364 70.9945 112.397 69.4494L111.622 68.9343L111.106 71.5095C111.106 71.5095 110.589 69.7069 111.364 68.6768L110.589 67.3892V64.814C110.589 64.814 112.139 57.8609 120.143 55.5433C120.143 55.5433 113.688 56.0583 110.589 62.4963L110.331 57.3459C110.331 57.3459 111.88 46.53 115.237 44.2123C115.237 44.2123 110.512 48.3327 109.776 57.0884C109.776 57.0884 107.491 46.2725 102.068 45.4999C102.068 45.4999 107.854 50.1353 109.222 56.9596L109.815 64.299C109.815 64.299 104.65 56.0583 99.228 56.3158C99.228 56.3158 106.2 57.8609 109.04 64.5565C109.04 64.5565 110.589 68.0286 109.686 71.0567C109.686 71.0567 108.265 65.5866 107.749 65.5866L108.007 67.6467C108.007 67.6467 109.815 70.737 109.556 72.2821C109.298 73.8272 109.342 76.8064 109.342 76.8064Z" fill="#A1A1A1"/>
<path d="M108.241 90.6187L112.832 90.5097C114.561 90.4687 115.974 89.1223 116.094 87.402L116.657 79.3639H104.263L104.819 87.5057C104.941 89.2894 106.449 90.6613 108.241 90.6187Z" fill="#D6D6E3"/>
<path d="M105.286 80.5033C108.735 80.6819 112.185 80.6819 115.634 80.5033C116.641 80.4512 117.432 79.6238 117.432 78.6187V76.2737C113.185 75.1279 108.477 75.2988 103.488 76.2737V78.6187C103.488 79.6238 104.279 80.4512 105.286 80.5033Z" fill="#A1A1A1"/>
<path d="M119.368 39.3195C119.368 39.3195 121.433 43.9549 114.72 50.9079C114.72 50.9079 111.621 52.453 111.105 52.453C111.105 52.453 110.33 50.6504 110.072 50.1354C109.814 49.6203 109.485 45.6775 112.654 42.1522C116.026 38.4014 117.837 38.8237 119.368 39.3195Z" fill="#D6D6E3"/>
<path d="M108.959 54.1855C108.959 54.1855 110.46 50.0067 108.136 47.4315C105.812 44.8563 102.455 42.281 100.131 43.0536C100.131 43.0536 99.3566 43.8262 99.873 45.1138C100.081 45.6312 100.372 46.3983 100.645 47.1307C101.297 48.8735 102.328 50.459 103.708 51.7105C104.192 52.1499 104.672 52.5111 105.054 52.6463C106.328 53.0969 108.398 54.1855 108.398 54.1855H108.959Z" fill="#D6D6E3"/>
<path d="M111.966 61.6645C111.966 61.6645 115.624 61.8526 118.723 59.2774C121.076 57.3211 122.089 55.8107 122.44 55.1976C122.597 54.9238 122.57 54.5784 122.362 54.3406C122.053 53.9856 121.334 53.609 119.668 53.7018C116.657 53.8695 114.333 54.642 113.042 56.1871C111.751 57.7323 111.161 59.4466 111.327 61.1646L111.966 61.6645Z" fill="#D6D6E3"/>
<path d="M107.863 61.6674C107.863 61.6674 109.293 58.304 103.547 55.3075C102.982 55.0128 102.365 54.8324 101.729 54.7753C100.056 54.6248 96.7624 54.6116 96.0002 56.7021C96.0002 56.7021 96.128 57.1069 97.7425 58.1921C98.8666 58.9477 100.076 59.5491 100.708 59.8447C100.983 59.9738 101.272 60.0699 101.57 60.1312L107.034 61.2553L107.863 61.6674Z" fill="#D6D6E3"/>
<path d="M110.589 66.0892L115.753 64.6907C115.753 64.6907 117.726 64.1454 119.128 66.0892C120.53 68.0331 120.788 69.8357 120.788 69.8357C120.788 69.8357 121.305 72.4109 120.272 72.926C119.239 73.441 112.397 69.4494 112.397 69.4494C112.397 69.4494 110.46 68.5233 110.589 66.0892Z" fill="#D6D6E3"/>
<path d="M107.749 65.5866L104.263 64.1911C104.263 64.1911 99.6152 63.6552 98.3242 66.7454C97.0331 69.8357 97.8077 70.6082 97.8077 70.6082C97.8077 70.6082 97.8077 71.1233 98.8406 71.1233C99.8734 71.1233 105.614 69.6002 108.295 68.1728L107.749 65.5866Z" fill="#D6D6E3"/>
<path d="M72.0755 30.4454L74.7867 30.3167C74.7867 30.3167 81.3711 38.4286 81.3711 41.0038C81.3711 41.0038 73.6248 42.5489 72.5919 46.6692L68.3971 38.4929L72.0755 30.4454Z" fill="#D8BAE8"/>
</svg>
