<svg width="91" height="88" viewBox="0 0 91 88" fill="none" xmlns="http://www.w3.org/2000/svg">
<g clip-path="url(#clip0_297_1516)">
<path d="M57.5815 19.7509H33.4387C32.8885 19.7516 32.3611 19.9704 31.972 20.3594C31.583 20.7485 31.3641 21.2759 31.3635 21.8261V75.4838L31.0868 75.5682L25.1641 77.382C24.8835 77.4676 24.5803 77.4383 24.3212 77.3005C24.0621 77.1628 23.8682 76.9279 23.7821 76.6473L6.16499 19.102C6.07926 18.8213 6.10848 18.5181 6.24623 18.2589C6.38399 17.9998 6.619 17.8059 6.89962 17.72L16.0264 14.9254L42.4852 6.82654L51.6119 4.03193C51.7508 3.98918 51.8967 3.97425 52.0414 3.98797C52.1861 4.0017 52.3266 4.04382 52.455 4.11193C52.5834 4.18003 52.6971 4.27279 52.7895 4.38488C52.882 4.49697 52.9515 4.6262 52.994 4.76517L57.4971 19.4742L57.5815 19.7509Z" fill="#F2F2F2"/>
<path d="M62.8498 19.4741L57.4225 1.74636C57.3322 1.45098 57.1845 1.17629 56.988 0.937983C56.7915 0.699678 56.55 0.502428 56.2773 0.357504C56.0045 0.21258 55.7059 0.122821 55.3984 0.0933604C55.0909 0.0638997 54.7807 0.0953141 54.4854 0.185805L41.6537 4.11347L15.1963 12.2137L2.36467 16.1427C1.76858 16.3258 1.26947 16.7378 0.976885 17.2885C0.684301 17.8391 0.622152 18.4834 0.804082 19.0798L19.3536 79.666C19.5014 80.1474 19.7996 80.5688 20.2045 80.8684C20.6093 81.1679 21.0995 81.3298 21.6032 81.3303C21.8363 81.3304 22.068 81.2954 22.2907 81.2265L31.0868 78.5343L31.3635 78.4485V78.1594L31.0868 78.2438L22.2091 80.9623C21.683 81.1227 21.1147 81.0678 20.6289 80.8098C20.1431 80.5517 19.7795 80.1115 19.6179 79.5857L1.06976 18.9982C0.989674 18.7377 0.961761 18.4639 0.987621 18.1926C1.01348 17.9213 1.09261 17.6577 1.22047 17.417C1.34833 17.1763 1.52242 16.9632 1.73276 16.7899C1.94311 16.6166 2.18557 16.4864 2.44627 16.407L15.2779 12.4779L41.7354 4.3791L54.567 0.45005C54.7648 0.389703 54.9704 0.358934 55.1771 0.358741C55.6208 0.359737 56.0525 0.502782 56.409 0.766922C56.7655 1.03106 57.0281 1.40242 57.1583 1.8266L62.5607 19.4741L62.6465 19.7508H62.9342L62.8498 19.4741Z" fill="#3F3D56"/>
<path d="M17.6729 17.7649C17.4063 17.7647 17.1467 17.6791 16.9323 17.5206C16.7179 17.3621 16.5599 17.139 16.4816 16.8841L14.6996 11.0636C14.6517 10.9073 14.6351 10.743 14.6507 10.5803C14.6663 10.4175 14.7138 10.2594 14.7905 10.115C14.8672 9.97058 14.9717 9.84271 15.0978 9.73866C15.2239 9.63461 15.3693 9.55643 15.5257 9.50858L39.8663 2.05671C40.182 1.96035 40.5231 1.99322 40.8147 2.14808C41.1062 2.30295 41.3244 2.56716 41.4214 2.88274L43.2033 8.70329C43.2996 9.01905 43.2667 9.36012 43.1119 9.65166C42.957 9.9432 42.6929 10.1614 42.3773 10.2584L18.0367 17.7103C17.9188 17.7465 17.7962 17.7649 17.6729 17.7649Z" fill="#9657B3"/>
<path d="M27.0077 6.30071C28.5358 6.30071 29.7746 5.06191 29.7746 3.53378C29.7746 2.00564 28.5358 0.766846 27.0077 0.766846C25.4795 0.766846 24.2407 2.00564 24.2407 3.53378C24.2407 5.06191 25.4795 6.30071 27.0077 6.30071Z" fill="#9657B3"/>
<path d="M27.0075 5.28583C27.9751 5.28583 28.7596 4.50139 28.7596 3.53372C28.7596 2.56606 27.9751 1.78162 27.0075 1.78162C26.0398 1.78162 25.2554 2.56606 25.2554 3.53372C25.2554 4.50139 26.0398 5.28583 27.0075 5.28583Z" fill="white"/>
<path d="M84.0734 80.6233H37.3122C37.0004 80.6229 36.7015 80.4989 36.4811 80.2784C36.2606 80.058 36.1366 79.7591 36.1362 79.4473V23.4169C36.1366 23.1051 36.2606 22.8062 36.481 22.5858C36.7015 22.3653 37.0004 22.2413 37.3122 22.241H84.0734C84.3851 22.2413 84.684 22.3653 84.9045 22.5858C85.1249 22.8062 85.2489 23.1051 85.2493 23.4169V79.4473C85.2489 79.7591 85.1249 80.058 84.9045 80.2784C84.684 80.4989 84.3851 80.6229 84.0734 80.6233Z" fill="#E6E6E6"/>
<path d="M62.5603 19.4741H33.4383C32.8148 19.475 32.2171 19.7231 31.7763 20.164C31.3354 20.6048 31.0873 21.2025 31.0864 21.826V78.2438L31.3631 78.1594V21.826C31.3638 21.2758 31.5826 20.7484 31.9717 20.3594C32.3607 19.9703 32.8881 19.7515 33.4383 19.7508H62.6461L62.5603 19.4741ZM87.9469 19.4741H33.4383C32.8148 19.475 32.2171 19.7231 31.7763 20.164C31.3354 20.6048 31.0873 21.2025 31.0864 21.826V85.1888C31.0873 85.8123 31.3354 86.41 31.7763 86.8509C32.2171 87.2917 32.8148 87.5398 33.4383 87.5407H87.9469C88.5704 87.5398 89.1681 87.2917 89.609 86.8509C90.0499 86.41 90.2979 85.8123 90.2988 85.1888V21.826C90.2979 21.2025 90.0499 20.6048 89.609 20.164C89.1681 19.7231 88.5704 19.475 87.9469 19.4741ZM90.0221 85.1888C90.0214 85.739 89.8026 86.2664 89.4136 86.6554C89.0245 87.0445 88.4971 87.2633 87.9469 87.264H33.4383C32.8881 87.2633 32.3607 87.0445 31.9717 86.6554C31.5826 86.2664 31.3638 85.739 31.3631 85.1888V21.826C31.3638 21.2758 31.5826 20.7484 31.9717 20.3594C32.3607 19.9703 32.8881 19.7515 33.4383 19.7508H87.9469C88.4971 19.7515 89.0245 19.9703 89.4136 20.3594C89.8026 20.7484 90.0214 21.2758 90.0221 21.826V85.1888Z" fill="#3F3D56"/>
<path d="M73.4206 25.5613H47.9648C47.6347 25.5609 47.3182 25.4296 47.0848 25.1962C46.8514 24.9627 46.7201 24.6463 46.7197 24.3161V18.2289C46.7201 17.8988 46.8514 17.5823 47.0848 17.3489C47.3183 17.1154 47.6347 16.9841 47.9648 16.9838H73.4206C73.7507 16.9841 74.0672 17.1154 74.3007 17.3489C74.5341 17.5823 74.6654 17.8988 74.6658 18.2289V24.3161C74.6654 24.6463 74.5341 24.9627 74.3007 25.1962C74.0672 25.4296 73.7507 25.5609 73.4206 25.5613Z" fill="#9657B3"/>
<path d="M60.6927 17.399C62.2208 17.399 63.4596 16.1602 63.4596 14.632C63.4596 13.1039 62.2208 11.8651 60.6927 11.8651C59.1646 11.8651 57.9258 13.1039 57.9258 14.632C57.9258 16.1602 59.1646 17.399 60.6927 17.399Z" fill="#9657B3"/>
<path d="M60.6926 16.3172C61.6234 16.3172 62.378 15.5626 62.378 14.6319C62.378 13.7011 61.6234 12.9465 60.6926 12.9465C59.7619 12.9465 59.0073 13.7011 59.0073 14.6319C59.0073 15.5626 59.7619 16.3172 60.6926 16.3172Z" fill="white"/>
</g>
<defs>
<clipPath id="clip0_297_1516">
<rect width="89.5983" height="87.4591" fill="white" transform="translate(0.700684 0.0819092)"/>
</clipPath>
</defs>
</svg>
